<svg version="1.1" id="Capa_1" xmlns="http://www.w3.org/2000/svg" xlink="http://www.w3.org/1999/xlink" x="0px" y="0px"
    width="35px" height="45px" fill="#999999" viewBox="0 0 47 47" space="preserve">
    <path d="M22.4,22.4c0,0.6,0.5,1.1,1.1,1.1s1.1-0.5,1.1-1.1c0-1.2,0.4-2.5,1.3-3.4c1.8-2.1,3.1-4.4,4-6.9
        c0.1-0.3,0.1-0.7-0.1-1c-0.2-0.3-0.5-0.5-0.9-0.5H18.2c-0.3,0-0.7,0.2-0.9,0.5c-0.2,0.3-0.2,0.6-0.1,1c0.9,2.4,2.2,4.7,4,6.9
        C22,20,22.4,21.2,22.4,22.4z"/>
    <path d="M24.6,26.7c0-0.6-0.5-1.1-1.1-1.1s-1.1,0.5-1.1,1.1c0,1.5-0.9,3.1-2.6,4.3c-3.6,2.6-6.2,5.5-8,8.5
        c-0.2,0.3-0.2,0.7,0,1.1c0.2,0.3,0.5,0.5,0.9,0.5h21.4c0.4,0,0.7-0.2,0.9-0.5c0.2-0.3,0.2-0.7,0-1.1c-1.7-3-4.4-5.9-8-8.5
        C25.5,29.8,24.6,28.3,24.6,26.7z"/>
    <path d="M42.2,42.7h-0.6C40.8,34.4,36,28,32.2,23.5C36,19,40.8,12.6,41.6,4.3h0.6c1.2,0,2.1-1,2.1-2.1
        c0-1.2-1-2.1-2.1-2.1H4.8C3.6,0,2.7,1,2.7,2.1c0,1.2,1,2.1,2.1,2.1h0.6C6.2,12.6,11,19,14.8,23.5C11,28,6.2,34.4,5.4,42.7H4.8
        c-1.2,0-2.1,1-2.1,2.1c0,1.2,1,2.1,2.1,2.1h2.7h32h2.7c1.2,0,2.1-1,2.1-2.1C44.3,43.7,43.4,42.7,42.2,42.7z M9.7,42.7
        c0.8-7.5,5.7-13.3,9.3-17.6l0.2-0.2c0.7-0.8,0.7-2,0-2.8l-0.2-0.2c-3.6-4.3-8.5-10.1-9.3-17.6h27.5c-0.8,7.5-5.7,13.3-9.3,17.6
        l-0.2,0.2c-0.7,0.8-0.7,2,0,2.8l0.2,0.2c3.6,4.3,8.5,10.1,9.3,17.6C37.3,42.7,9.7,42.7,9.7,42.7z"/>
</svg>