<?xml version="1.0" encoding="utf-8"?>
<!-- Generator: Adobe Illustrator 24.0.3, SVG Export Plug-In . SVG Version: 6.00 Build 0)  -->
<svg version="1.1" id="Capa_1" xmlns="http://www.w3.org/2000/svg" xmlns:xlink="http://www.w3.org/1999/xlink" x="0px" y="0px"
	 width="25px" height="25px" viewBox="0 0 383.2 383.2" style="enable-background:new 0 0 383.2 383.2;" xml:space="preserve"
	>
<style type="text/css">
	.st0{fill:#A5A5A5;}
</style>
<g>
	<g>
		<path class="st0" d="M226.4,123.7c-1.7-1.4-3.9-2.1-6.2-1.9h-33.6l31.6-35.3l3-3.3l1.5-1.9c0.5-0.7,1-1.5,1.3-2.4
			c0.4-0.9,0.6-1.9,0.6-2.9c0.2-2.3-0.9-4.6-3-5.8c-2.6-1.2-5.5-1.8-8.4-1.6h-39.3c-2.1-0.1-4.2,0.5-5.8,1.8
			c-1.4,1.2-2.1,2.9-2.1,4.7c0,2.7,0.9,4.4,2.7,5c2.6,0.7,5.3,1.1,8,1h25.6c-1.1,1.5-2.5,3.3-4.2,5.3l-6.6,7.4l-8.9,9.6l-10.3,11.4
			c-3.6,4-5.9,6.7-7,8c-2.5,3.1-2.2,7.6,0.7,10.3c2.1,1.6,4.7,2.4,7.4,2.2h46.7c2.2,0.2,4.5-0.5,6.2-1.8c1.4-1.2,2.1-2.9,2.1-4.7
			C228.5,126.7,227.8,124.9,226.4,123.7z"/>
	</g>
</g>
<g>
	<g>
		<path class="st0" d="M297.2,164.5c-1.4-1.1-3.2-1.7-5-1.5h-26.9l25.2-28.2l2.4-2.6l1.5-1.8c0.4-0.6,0.8-1.2,1-1.9
			c0.3-0.7,0.5-1.5,0.5-2.3c0.2-1.9-0.7-3.7-2.3-4.6c-2.1-1-4.4-1.4-6.7-1.3h-31.7c-1.7-0.1-3.3,0.4-4.6,1.4
			c-1.1,0.9-1.7,2.3-1.7,3.8c0,2.1,0.7,3.5,2.2,4c2.1,0.6,4.2,0.8,6.4,0.7H278c-0.8,1.2-1.9,2.6-3.4,4.2l-5.3,5.9l-6.9,8l-8,9.1
			c-2.9,3.2-4.8,5.4-5.7,6.6c-1.9,2.4-1.6,5.9,0.6,8c1.7,1.2,3.8,1.8,5.8,1.7h37.1c1.8,0.1,3.5-0.4,5-1.4c1.1-1,1.6-2.3,1.6-3.8
			C298.9,167,298.3,165.5,297.2,164.5z"/>
	</g>
</g>
<g>
	<g>
		<path class="st0" d="M381.1,119.6c-1.7-1.4-3.9-2.1-6.2-1.9h-33.8l31.6-35.3l3-3.3l1.9-2.3c0.5-0.7,1-1.5,1.3-2.4
			c0.4-0.9,0.6-1.9,0.6-2.9c0.2-2.3-0.9-4.6-3-5.8c-2.6-1.2-5.5-1.8-8.4-1.6h-39.7c-2.1-0.1-4.2,0.5-5.8,1.8
			c-1.4,1.2-2.1,2.9-2.1,4.7c0,2.7,0.9,4.4,2.7,5c2.6,0.7,5.3,1.1,8,1h25.6c-1.1,1.5-2.5,3.3-4.2,5.3l-6.6,7.5l-8.6,9.6L327,110.4
			c-3.6,4-5.9,6.7-7,8c-2.5,3.1-2.2,7.6,0.7,10.3c2.1,1.6,4.7,2.4,7.4,2.2h46.6c2.3,0.3,4.5-0.3,6.4-1.6c1.4-1.2,2.1-2.9,2.1-4.7
			C383.3,122.7,382.5,120.8,381.1,119.6z"/>
	</g>
</g>
<g>
	<g>
		<path class="st0" d="M353.5,254.3c-2.3-2.4-5.8-3.1-8.8-1.8c-86.7,35.9-186.1-5.3-222-92c-18.2-44-17.1-93.7,3-136.9
			c1.9-4,0.2-8.8-3.8-10.7c-2.1-1-4.4-1-6.5-0.1C20.4,51.8-25,160.5,14,255.6S161.8,396.1,256.8,357c43.4-17.8,78.4-51.3,98.1-93.8
			C356.3,260.2,355.8,256.7,353.5,254.3z M186.2,355.1c-94,0-170.1-76.2-170.1-170.2c0-61.7,33.4-118.6,87.3-148.6
			c-6.4,18.9-9.6,38.8-9.6,58.8c0,102.8,83.4,186.2,186.2,186.2c17.2,0,34.4-2.4,51-7.1C299.9,324.3,245.2,354.9,186.2,355.1z"/>
	</g>
</g>
</svg>
