<?xml version="1.0" encoding="utf-8"?>
<!-- Generator: Adobe Illustrator 24.0.3, SVG Export Plug-In . SVG Version: 6.00 Build 0)  -->
<svg version="1.1" id="Calque_1" xmlns="http://www.w3.org/2000/svg" xmlns:xlink="http://www.w3.org/1999/xlink" x="0px" y="0px"
	 width="25px" height="25px" viewBox="0 0 512 512" style="enable-background:new 0 0 512 512;" xml:space="preserve">
<style type="text/css">
	.st0{fill:#A5A5A5;}
</style>
<path class="st0" d="M136,462c0,27.6,22.4,50,50,50h140c27.6,0,50-22.4,50-50V230c0-19.9-11.7-37.2-28.6-45.2
	c5.4-6.8,8.6-15.4,8.6-24.8c0-14.5-7.8-27.6-20-34.6c0-2.8,0-5.3,0-5.4c0-18.5-12.2-28.6-23-37.4c-13.3-10.9-27-22.2-27-52.2V30
	c0-16.5-13.5-30-30-30s-30,13.5-30,30c0,30.4-13.9,41.9-27.3,53.1C188.1,91.9,176,101.9,176,120c0,0.1,0,2.6,0,5.4
	c-12.2,7-20,20.2-20,34.6c0,9.4,3.2,18,8.6,24.8c-16.9,8-28.6,25.3-28.6,45.2v73c0,5.5,4.5,10,10,10s10-4.5,10-10v-73
	c0-16.5,13.5-30,30-30h140c16.5,0,30,13.5,30,30v16h-50c-5.5,0-10,4.5-10,10s4.5,10,10,10h50v40h-50c-5.5,0-10,4.5-10,10
	s4.5,10,10,10h50v40h-50c-5.5,0-10,4.5-10,10s4.5,10,10,10h50v40h-50c-5.5,0-10,4.5-10,10s4.5,10,10,10h50v16c0,16.5-13.5,30-30,30
	H186c-16.5,0-30-13.5-30-30v-79c0-5.5-4.5-10-10-10s-10,4.5-10,10V462z M211.5,98.5C226,86.3,246,69.8,246,30c0-5.5,4.5-10,10-10
	s10,4.5,10,10v0.4c0,39.5,19.8,55.8,34.3,67.7c10.3,8.5,15.7,13.3,15.7,22H196C196,111.7,201.3,106.9,211.5,98.5z M196,140h120
	c11.1,0,20,9,20,20c0,11-9,20-20,20H196c-11,0-20-9-20-20C176,149,185,140,196,140z"/>
<path class="st0" d="M146,353c5.5,0,10-4.5,10-10s-4.5-10-10-10s-10,4.5-10,10S140.5,353,146,353z"/>
</svg>
