<?xml version="1.0" encoding="utf-8"?>
<!-- Generator: Adobe Illustrator 24.0.3, SVG Export Plug-In . SVG Version: 6.00 Build 0)  -->
<svg version="1.1" id="Capa_1" xmlns="http://www.w3.org/2000/svg" xmlns:xlink="http://www.w3.org/1999/xlink" x="0px" y="0px"
	 width="25px" height="25px" viewBox="0 0 512 512" style="enable-background:new 0 0 512 512;" xml:space="preserve">
<style type="text/css">
	.st0{fill:#004CC5;}
</style>
<g>
	<g>
		<g>
			<path class="st0" d="M161.8,180.9c-4-0.9-8.1,1.6-9,5.7c-1.5,6.4-4.5,12-9,16.5c-15.1,15.1-42.2,12.7-60.3-5.5
				c-9.7-9.7-18.9-25.9-23.4-41.3c-4.7-16-3.9-28.7,2.2-34.8c13.2-13.2,56,1.2,76.1,21.3c5.2,5.2,9.2,11.2,11.9,17.8
				c1.6,3.8,5.9,5.7,9.8,4.1c3.8-1.6,5.7-5.9,4.1-9.8c-3.4-8.4-8.5-16.1-15.2-22.7c-11.5-11.5-29.8-21.9-47.7-27.2
				c-21.8-6.4-39.4-4.3-49.6,5.9c-10.2,10.2-12.4,27.9-5.9,49.6c5.3,17.9,15.7,36.1,27.2,47.7c13.1,13.1,29.8,19.7,45.8,19.7
				c13.4,0,26.2-4.7,35.7-14.2c6.4-6.4,10.9-14.6,13-23.8C168.4,185.8,165.9,181.8,161.8,180.9z"/>
			<path class="st0" d="M504.5,142c-9-8.2-23.1-7.8-31.9,1.1l-68.3,68.3c-3.2,3.2-8.5,3.2-11.7,0c-3.2-3.2-3.2-8.5,0-11.7l68.6-68.6
				c8.9-8.9,8.9-23.5,0-32.4c-8.9-8.9-23.5-8.9-32.4,0l-68.6,68.6c-1.6,1.6-3.6,2.4-5.8,2.4s-4.3-0.9-5.8-2.4
				c-3.2-3.2-3.2-8.5,0-11.7L417.2,87c4.3-4.3,6.7-10.1,6.7-16.2s-2.4-11.9-6.7-16.2c-8.9-8.9-23.4-8.9-32.4,0l-18.5,18.5
				c-2.9,2.9-2.9,7.7,0,10.6c2.9,2.9,7.7,2.9,10.6,0l18.5-18.5c1.5-1.5,3.5-2.3,5.6-2.3h0c2.1,0,4.1,0.8,5.6,2.3
				c1.5,1.5,2.3,3.5,2.3,5.6s-0.8,4.1-2.3,5.6L337.9,145c-9.1,9.1-9.1,23.8,0,32.9c4.4,4.4,10.2,6.8,16.5,6.8
				c6.2,0,12.1-2.4,16.5-6.8l68.6-68.6c3.1-3.1,8.1-3.1,11.2,0c3.1,3.1,3.1,8.1,0,11.2L382,189.1c-9.1,9.1-9.1,23.8,0,32.9
				c9.1,9.1,23.8,9.1,32.9,0l68.3-68.3c3.1-3.1,8.1-3.4,11.2-0.6c1.6,1.5,2.5,3.5,2.6,5.7c0.1,2.2-0.8,4.2-2.3,5.8l-79.8,79.8
				c-26.8,26.7-65.4,34.9-94,19.9c-3.1-1.6-6.8-0.9-9.1,1.7l-104.6,118c-2.7,3.1-2.5,7.8,0.6,10.6c1.4,1.3,3.2,1.9,5,1.9
				c2.1,0,4.1-0.9,5.6-2.5l30.3-34.2l78.5,88.6c8.1,9.1,19.3,14.4,31.5,14.7c0.5,0,0.9,0,1.4,0c11.7,0,22.6-4.5,30.9-12.8
				c8.6-8.6,13.2-20.1,12.8-32.3c-0.4-12.2-5.6-23.4-14.7-31.5l-91.9-81.5l22.1-24.9c33.7,14.5,76.5,4.6,106.2-25.1l79.8-79.8
				c4.4-4.4,6.8-10.5,6.7-16.7C511.8,152.1,509.2,146.2,504.5,142z M379.1,397.6c6,5.3,9.4,12.7,9.7,20.7s-2.8,15.6-8.4,21.2
				c-5.7,5.7-13.2,8.7-21.2,8.4c-8-0.2-15.4-3.7-20.7-9.7l-79.7-90l28.5-32.2L379.1,397.6z"/>
			<path class="st0" d="M192,412.3c-3.1-2.7-7.8-2.5-10.6,0.6l-23.9,26.9c-5,5.6-12.1,9-19.6,9.3c-7.3,0.3-14.2-2.4-19.3-7.4
				c-5.3-5.2-8.2-12.2-8-19.7c0.2-7.5,3.4-14.3,8.9-19.2l174.5-154.7c2.6-2.3,3.3-6,1.7-9.1c-15-28.6-6.9-67.3,19.9-94l41-41
				c2.9-2.9,2.9-7.7,0-10.6c-2.9-2.9-7.7-2.9-10.6,0l-41,41c-29.7,29.7-39.6,72.6-25.1,106.2l-27.6,24.5l-44.7-39.6
				c15.6-35.7,5.1-81.3-26.5-112.9c-19.9-19.9-51.7-38-82.7-47.2c-36.8-10.8-66.2-7.6-82.9,9.1c-16.7,16.7-20,46.2-9.1,82.9
				c9.1,31.1,27.2,62.8,47.2,82.7c31.6,31.6,77.2,42.1,112.9,26.5l37,41.8l-93.7,83.1c-8.6,7.6-13.7,18.6-14,30.1
				c-0.3,11.5,4.3,22.7,12.5,30.7c7.7,7.6,17.9,11.7,28.8,11.7c0.5,0,1,0,1.5,0c11.6-0.4,22.7-5.6,30.3-14.3l23.9-26.9
				C195.4,419.7,195.1,415,192,412.3z M173.8,252.5c-2.3-2.6-6-3.3-9.1-1.7c-30.6,16.1-72,7.4-100.7-21.2c-18-18-35-48-43.4-76.4
				c-9.1-30.8-7.1-55.6,5.4-68.1c12.5-12.5,37.3-14.4,68.1-5.4c28.4,8.4,58.4,25.4,76.4,43.4c28.6,28.6,37.4,70,21.2,100.7
				c-1.6,3.1-0.9,6.8,1.7,9.1l47.6,42.2l-26.4,23.4L173.8,252.5z"/>
		</g>
	</g>
</g>
</svg>
