<?xml version="1.0" encoding="utf-8"?>
<!-- Generator: Adobe Illustrator 24.0.1, SVG Export Plug-In . SVG Version: 6.00 Build 0)  -->
<svg version="1.1" id="Layer_1" xmlns="http://www.w3.org/2000/svg" xmlns:xlink="http://www.w3.org/1999/xlink" x="0px" y="0px"
	 width="25px" height="25px" viewBox="0 0 512 512" style="enable-background:new 0 0 512 512;" xml:space="preserve">
<style type="text/css">
	.st0{fill:#004CC5;}
</style>
<g>
	<g id="Layer_2_16_">
		<g>
			<path class="st0" d="M303,447.1c-3.8,1-7.7,1.8-11.6,2.5c-10.1,1.9-16.9,11.6-15,21.8c0.9,5,3.8,9.2,7.6,11.9
				c4,2.8,9,4.1,14.2,3.1c4.6-0.9,9.3-1.9,13.9-3c10-2.5,16.1-12.6,13.6-22.7C323.2,450.7,313,444.6,303,447.1z"/>
			<path class="st0" d="M441.3,196.4c1.3,3.9,3.8,7.2,7,9.4c4.7,3.3,10.8,4.4,16.7,2.5c9.8-3.3,15.1-13.8,11.9-23.6
				c-1.5-4.5-3.1-8.9-4.9-13.3c-3.8-9.6-14.7-14.3-24.3-10.4c-9.6,3.8-14.3,14.7-10.4,24.3C438.7,188.9,440,192.7,441.3,196.4z"/>
			<path class="st0" d="M363.8,420.4c-3.3,2.2-6.7,4.3-10.1,6.3c-8.9,5.2-12,16.6-6.9,25.5c1.4,2.4,3.3,4.4,5.4,5.9
				c5.8,4.1,13.6,4.7,20.1,0.9c4.1-2.4,8.1-4.9,12.1-7.5c8.6-5.7,11-17.3,5.3-25.9C384,417.1,372.4,414.7,363.8,420.4z"/>
			<path class="st0" d="M488.4,248.7c-0.4-10.3-9.1-18.4-19.4-18c-10.3,0.4-18.4,9.1-17.9,19.4c0.2,3.9,0.2,7.9,0.1,11.9
				c-0.1,6.5,3,12.2,7.9,15.7c2.9,2.1,6.5,3.3,10.3,3.4c10.3,0.2,18.9-8,19.1-18.3C488.6,258.2,488.6,253.4,488.4,248.7z"/>
			<path class="st0" d="M438.2,371.2c-8.3-6.2-20-4.5-26.2,3.7c-2.4,3.2-4.9,6.3-7.4,9.3c-6.7,7.9-5.7,19.7,2.1,26.4
				c0.4,0.4,0.9,0.7,1.4,1.1c7.8,5.5,18.7,4.2,25-3.2c3.1-3.6,6-7.3,8.9-11.1C448.2,389.1,446.5,377.4,438.2,371.2z"/>
			<path class="st0" d="M465.7,303.6c-9.9-3.1-20.4,2.4-23.4,12.3c-1.2,3.8-2.5,7.5-3.9,11.3c-3.1,8.2-0.1,17.1,6.7,21.9
				c1.3,0.9,2.6,1.6,4.1,2.2c9.6,3.7,20.5-1.2,24.1-10.8c1.7-4.4,3.2-8.9,4.6-13.4C481.1,317.2,475.6,306.7,465.7,303.6z"/>
			<path class="st0" d="M221.4,449.8c-16.7-3-32.8-8.1-48-15.2c-0.2-0.1-0.3-0.2-0.5-0.3c-3.6-1.7-7.2-3.5-10.6-5.4c0,0,0,0-0.1,0
				c-6.4-3.5-12.6-7.4-18.6-11.6c-88-62-109.1-184-47.1-271.9c13.5-19.1,29.8-35.1,48-47.7c0.2-0.2,0.4-0.3,0.7-0.5
				C209.2,53,296.2,50,364.2,95.4l-14.6,21.1c-4.1,5.9-1.6,10.2,5.5,9.5l63.5-5.7c7.1-0.6,11.4-6.8,9.5-13.7l-17-61.4
				c-1.9-6.9-6.8-7.7-10.9-1.8l-14.6,21.2c-49.9-33.5-109.8-46.3-169.2-36c-6,1-11.9,2.3-17.7,3.8c0,0-0.1,0-0.1,0
				c-0.2,0.1-0.5,0.1-0.7,0.2c-51.2,13.2-96,43.1-127.9,85.7c-0.3,0.3-0.5,0.6-0.8,1c-1.1,1.4-2.1,2.9-3.1,4.4
				c-1.7,2.4-3.3,4.9-4.9,7.3c-0.2,0.3-0.4,0.6-0.5,0.9c-26.3,40.8-39,88-36.9,136c0,0.2,0,0.3,0,0.5c0.2,4.7,0.6,9.4,1.1,14.1
				c0,0.3,0.1,0.6,0.1,0.9c0.5,4.7,1.2,9.4,2,14.1c8.3,48.1,31.1,91.5,65.1,125.2c0.1,0.1,0.2,0.2,0.2,0.2c0,0,0.1,0,0.1,0.1
				c9.1,9,19.1,17.4,29.8,24.9c28,19.7,59.2,32.8,92.7,38.8c10.2,1.8,19.9-4.9,21.7-15.1C238.3,461.3,231.6,451.6,221.4,449.8z"/>
			<path class="st0" d="M244.5,106.6c-8.4,0-15.1,6.8-15.1,15.1v150.7l137.9,71.3c2.2,1.1,4.6,1.7,6.9,1.7c5.5,0,10.8-3,13.5-8.2
				c3.8-7.4,0.9-16.5-6.5-20.4L259.6,254V121.7C259.6,113.4,252.9,106.6,244.5,106.6z"/>
		</g>
	</g>
</g>
</svg>
