<?xml version="1.0" encoding="utf-8"?>
<!-- Generator: Adobe Illustrator 24.0.1, SVG Export Plug-In . SVG Version: 6.00 Build 0)  -->
<svg version="1.1" id="Layer_1" xmlns="http://www.w3.org/2000/svg" xmlns:xlink="http://www.w3.org/1999/xlink" x="0px" y="0px"
	 width="25px" height="25px" viewBox="0 0 512 512" style="enable-background:new 0 0 512 512;" xml:space="preserve">
<style type="text/css">
	.st0{fill:#004CC5;}
</style>
<g>
	<g>
		<path class="st0" d="M408.3,317.8c-23.5-23.5-51.4-40.8-81.8-51.3c32.6-22.5,54.1-60.1,54.1-102.6c0-68.6-55.9-124.5-124.5-124.5
			S131.5,95.2,131.5,163.9c0,42.5,21.4,80.1,54.1,102.6c-30.5,10.5-58.4,27.9-81.8,51.3C63,358.5,40.6,412.5,40.6,470.1h33.6
			c0-100.2,81.5-181.7,181.7-181.7s181.7,81.5,181.7,181.7h33.6C471.4,412.5,449,358.5,408.3,317.8z M256,254.7
			c-50.1,0-90.9-40.8-90.9-90.9S205.9,73,256,73s90.9,40.8,90.9,90.9S306.1,254.7,256,254.7z"/>
	</g>
</g>
</svg>
