<?xml version="1.0" encoding="utf-8"?>
<!-- Generator: Adobe Illustrator 24.0.1, SVG Export Plug-In . SVG Version: 6.00 Build 0)  -->
<svg version="1.1" id="Layer_1" xmlns="http://www.w3.org/2000/svg" xmlns:xlink="http://www.w3.org/1999/xlink" x="0px" y="0px"
	 width="25px" height="25px" viewBox="0 0 512 512" style="enable-background:new 0 0 512 512;" xml:space="preserve">
<style type="text/css">
	.st0{fill:#004CC5;}
</style>
<g>
	<path class="st0" d="M193.2,63.7c0-0.2,0-0.5,0-0.7c-0.1-13.9-17.1-16.7-24.4-6.6c-19.2,26.3-42.2,50.2-63.9,74.7
		C93.2,117.9,82,104.2,69.6,91.8c-8.9-9-23.5,2.5-17.4,13.4c11.4,20.3,27.7,37.9,43.4,54.9c4.6,5,14,5.1,18.5,0
		c15.4-17.4,30.6-34.9,45.9-52.4c7.1-8.2,14.3-16.3,21.4-24.5c2.9-3.1,5.7-6.3,8.2-9.7c0.8-1.4,0.9-2.1,0.6-2.3
		C191.9,69.2,193.2,66.9,193.2,63.7z"/>
	<path class="st0" d="M451.2,109.3c-35.9-5.5-71.6-1-107.6-2.7c-34.5-1.7-75.9-12.5-105.4,9.1c-3.6,2.6-3.2,7.8,1.2,9.3
		c28.8,9.9,65.5,6,96.2,7.7c36.1,2,72.8-3.3,108.5,2.3c0-0.1,0-0.2,0-0.3C460.8,138.7,467.9,111.9,451.2,109.3z"/>
	<path class="st0" d="M171.6,199.5c-24.5,23.6-45,53.3-65.5,81.2c-13.7-13.4-26.6-27.6-40.6-40.7c-7.8-7.3-20.4,1.9-15,11.6
		c12.3,21.8,30.4,40.4,48,57.9c6.6,6.5,15.5,3.9,20.6-2.7c23.5-30.5,51.4-59.9,71.6-92.6C198.1,202.3,181.5,190,171.6,199.5z"/>
	<path class="st0" d="M446.7,249.7c-66-3-135.3-8.9-200.9,0.2c-8.7,1.2-8.7,16.4,0,17.6c65.1,9.3,133.2,6.3,198.9,8.6
		C460.4,280.3,466.9,250.6,446.7,249.7z"/>
	<path class="st0" d="M197.8,347.1l-0.1-1.3c-1.1-9.7-10-16-19.3-11.1c-15,7.9-24.4,31.4-33.1,45.2c-10.2,16.2-20,32.7-29.5,49.3
		c-15.6-15.4-31.1-30.9-47.8-45c-9.7-8.2-21.6,4.1-13.8,13.8c17.3,21.5,36.6,41.3,55.3,61.5c5.7,6.2,16.3,4.4,20.4-2.6
		c10.2-17.3,20.2-34.7,30.8-51.8c8.9-14.3,18.3-34.5,30.3-47.2C194.9,356,198.3,351.1,197.8,347.1z"/>
	<path class="st0" d="M444.4,388.2c-64.4-6.5-131.7-11.7-196.1-3.4c-13.8,1.8-14.6,21.4,0,22.1c65.5,3.1,130.6,1.6,196.1,7.8
		C461.3,416.3,461.2,389.8,444.4,388.2z"/>
</g>
</svg>
