<?xml version="1.0" encoding="utf-8"?>
<!-- Generator: Adobe Illustrator 24.0.1, SVG Export Plug-In . SVG Version: 6.00 Build 0)  -->
<svg version="1.1" id="Layer_1" xmlns="http://www.w3.org/2000/svg" xmlns:xlink="http://www.w3.org/1999/xlink" x="0px" y="0px"
	 width="25px" height="25px" viewBox="0 0 512 512" style="enable-background:new 0 0 512 512;" xml:space="preserve">
<style type="text/css">
	.st0{fill:#004CC5;}
</style>
<path class="st0" d="M404.8,254.8c0-67.7-54.9-122.6-122.6-122.6s-122.6,54.9-122.6,122.6c0,67.7,54.9,122.6,122.6,122.6
	C349.9,377.4,404.8,322.5,404.8,254.8z M175.6,254.8c0-58.9,47.7-106.6,106.6-106.6s106.6,47.7,106.6,106.6s-47.7,106.6-106.6,106.6
	C223.3,361.4,175.6,313.7,175.6,254.8z"/>
<path class="st0" d="M334.8,264.8c0-4.4-3.6-8-8-8H284v-59.4c0-4.4-3.6-8-8-8s-8,3.6-8,8v66.9c0,4.4,3.4,8.4,7.9,8.4h51
	C331.2,272.8,334.8,269.2,334.8,264.8z"/>
<path class="st0" d="M282.2,39.5c-104.6,0-194.1,75.3-212.1,178.3H22.5c-2.9,0-5.6,1.6-7,4.1c-1.4,2.6-1.3,5.7,0.3,8.2L74,318.9
	c1.5,2.3,4,3.6,6.7,3.6c2.7,0,5.2-1.4,6.7-3.6l58.2-88.7c1.6-2.4,1.7-5.6,0.3-8.1c-1.4-2.6-4.1-4.2-7-4.1H86.3
	c17.8-94.1,100.1-162.3,195.9-162.3c109.9,0,199.3,89.4,199.3,199.3s-89.4,199.3-199.3,199.3c-4.4,0-8,3.6-8,8s3.6,8,8,8
	c87.1,0,165.6-52.5,198.9-132.9c33.3-80.4,14.9-173-46.7-234.6C394.2,62.1,339.3,39.4,282.2,39.5z M80.7,300l-43.4-66.2h86.8
	L80.7,300z"/>
</svg>
