<?xml version="1.0" encoding="utf-8"?>
<!-- Generator: Adobe Illustrator 24.0.1, SVG Export Plug-In . SVG Version: 6.00 Build 0)  -->
<svg version="1.1" id="Layer_1" xmlns="http://www.w3.org/2000/svg" xmlns:xlink="http://www.w3.org/1999/xlink" x="0px" y="0px"
	 width="25px" height="25px" viewBox="0 0 512 512" style="enable-background:new 0 0 512 512;" xml:space="preserve">
<style type="text/css">
	.st0{fill:#004CC5;}
</style>
<g>
	<g>
		<path class="st0" d="M338.7,243.1C338.6,243.1,338.6,243.1,338.7,243.1h-39.9v-39.9c0.1-8-6.4-14.6-14.5-14.7c0,0-0.1,0-0.1,0
			h-57.5c-8,0-14.6,6.5-14.6,14.6V243h-39.8c-8-0.1-14.6,6.4-14.7,14.5c0,0.1,0,0.1,0,0.2V315c0,8,6.5,14.6,14.6,14.6h39.9v39.8
			c-0.1,8,6.4,14.6,14.5,14.7c0,0,0.1,0,0.1,0h57.4c8,0,14.6-6.5,14.6-14.6l0,0v-39.9h39.9c8,0.1,14.6-6.4,14.7-14.5
			c0,0,0-0.1,0-0.1v-57.4C353.2,249.6,346.7,243.1,338.7,243.1z M333.7,310H289c-5.4,0-9.8,4.4-9.8,9.8v44.7h-47.5v-44.7
			c0-5.4-4.4-9.8-9.8-9.8h-44.7v-47.4H222c5.4,0,9.8-4.4,9.8-9.8v-44.8h47.4v44.7c0,5.4,4.4,9.8,9.8,9.8h44.8V310z"/>
	</g>
</g>
<g>
	<g>
		<path class="st0" d="M425.6,115.4L425.6,115.4H345V81c0.5-15.7-11.8-28.8-27.5-29.3c-0.8,0-1.6,0-2.4,0H195.9
			c-15.7-0.8-29.1,11.2-29.9,26.9c0,0.8-0.1,1.6,0,2.4v34.2H85.4c-31.1,0-67.4,17.7-67.4,67.4v212.6c0,49.7,36.4,67.4,67.4,67.4
			h340.1c31.1,0,67.4-17.7,67.4-67.4V182.9C493,133.1,456.7,115.4,425.6,115.4z M185.5,81c0-2.8,0-10.5,10.5-10.5h119.1
			c10.5,0,10.5,7.5,10.5,10.5v34.2H185.5V81z M473.5,395.3c0,43.2-33.4,47.9-47.9,47.9H85.4c-14.4,0-47.9-4.7-47.9-47.9V182.9
			c0-43.2,33.4-47.9,47.9-47.9h340.1c14.4,0,47.9,4.7,47.9,47.9L473.5,395.3L473.5,395.3z"/>
	</g>
</g>
</svg>
