<?xml version="1.0" encoding="utf-8"?>
<!-- Generator: Adobe Illustrator 24.0.1, SVG Export Plug-In . SVG Version: 6.00 Build 0)  -->
<svg version="1.1" id="Layer_1" xmlns="http://www.w3.org/2000/svg" xmlns:xlink="http://www.w3.org/1999/xlink" x="0px" y="0px"
	 width="25px" height="25px" viewBox="0 0 512 512" style="enable-background:new 0 0 512 512;" xml:space="preserve">
<style type="text/css">
	.st0{fill:#004CC5;}
</style>
<g>
	<g>
		<path class="st0" d="M1095.4,188.7H647.8c-4.3,0-7.7,3.4-7.7,7.7c0,89.4,72.7,162.1,162.1,162.1h138.9
			c89.4,0,162.1-72.7,162.1-162.1C1103.1,192.1,1099.7,188.7,1095.4,188.7z M941.1,343H802.2c-78.3,0-142.4-61.6-146.4-138.9h431.7
			C1083.5,281.4,1019.3,343,941.1,343z"/>
	</g>
</g>
<g>
	<g>
		<path class="st0" d="M1033.7,3.5c0-0.6,0-1.1-0.1-2c-1.2-12.8-10-23.3-21.6-27.2l8.7-8.7c15.1-14.8,16.7-38.6,3.4-55.3
			c-14.2-17.3-39.8-19.7-57-5.5c-1,0.8-1.9,1.7-2.9,2.6l-9.5,9.6c-4-11.6-14.5-20.3-27.5-21.5c-17.1-0.9-31.6,12.2-32.5,29.2
			c0,0.6,0,1.1,0,1.7v11.8c-4.5-2.6-9.8-4.1-15.4-4.2c-0.6,0-1.1,0-2,0.1c-16.5,1.5-29.2,15.7-28.9,32.1v10.5
			c-4.6-2.7-9.9-4.1-15.4-4.1c-0.6,0-1.1,0-2,0.1c-16.5,1.5-29.2,15.7-28.9,32.1v114.4c0,4.3,3.5,7.7,7.7,7.7h131.2
			c17,0,30.9-13.8,30.9-30.9c0-5.6-1.5-10.9-4.1-15.4h10.4c16.6,0.5,30.8-12.4,32.3-29.2c0.3-6.3-1.2-12.2-4.2-17.3
			c6.9-0.8,13.3-3.8,18.3-8.8C1030.5,19.5,1033.7,11.8,1033.7,3.5z M1013.8,14.4c-2.9,2.9-6.8,4.5-10.9,4.5c0,0,0,0,0,0h-23.1
			c-4.3,0-7.7,3.5-7.7,7.7s3.4,7.7,7.7,7.7l0.8,0c8.5,0.5,15,7.7,14.6,15.9c-0.8,8.5-8,15.1-16.8,14.9h-37.3c-4.3,0-7.7,3.5-7.7,7.7
			c0,4.3,3.4,7.7,7.7,7.7c8.5,0,15.4,6.9,15.4,15.4s-6.9,15.4-15.4,15.4H817.6V4.6c-0.1-8.5,6.4-15.8,14.6-16.6l0.8,0
			c8.5,0,15.4,6.9,15.4,15.4v0.1c0,4.3,3.4,7.7,7.7,7.7c0,0,0,0,0,0c4.3,0,7.7-3.4,7.7-7.7v0v-37.4c-0.1-8.5,6.4-15.8,14.6-16.6
			l0.8,0c8.5,0,15.4,6.9,15.4,15.4v0c0,4.3,3.4,7.7,7.7,7.7c0,0,0,0,0,0c4.3,0,7.7-3.4,7.7-7.7v0v-38.6l0-0.9
			c0.4-8.5,7.6-15,15.9-14.6c8.5,0.8,15.1,8.1,14.9,16.8v6.4c0,3.1,1.9,5.9,4.8,7.1c2.9,1.2,6.2,0.5,8.4-1.7l20.9-21.2
			c0.6-0.6,1.2-1.1,1.8-1.6c10.7-8.8,26.5-7.3,35.2,3.3c8.2,10.4,7.3,25.3-2.3,34.7l-20.3,20.3c-2.2,2.2-2.9,5.5-1.7,8.4
			c1.2,2.9,4,4.8,7.1,4.8h6.4c0.2,0,0.3,0,0.4,0c8.4,0,15.6,6.5,16.3,14.6l0,0.8C1018.3,7.6,1016.7,11.5,1013.8,14.4z"/>
	</g>
</g>
<g>
	<g>
		
			<rect x="718.9" y="49.7" transform="matrix(0.7071 -0.7071 0.7071 0.7071 214.6667 633.175)" class="st0" width="305.6" height="15.4"/>
	</g>
</g>
<g>
	<g>
		<rect x="925.6" y="-42.8" class="st0" width="15.4" height="38.6"/>
	</g>
</g>
<g>
	<g>
		<rect x="879.3" y="-4.2" class="st0" width="15.4" height="46.3"/>
	</g>
</g>
<g>
	<g>
		<rect x="833" y="34.3" class="st0" width="15.4" height="54"/>
	</g>
</g>
<g>
	<g>
		<rect x="933.4" y="-11.9" class="st0" width="38.6" height="15.4"/>
	</g>
</g>
<g>
	<g>
		<rect x="887.1" y="34.3" class="st0" width="46.3" height="15.4"/>
	</g>
</g>
<g>
	<g>
		<rect x="840.8" y="80.6" class="st0" width="54" height="15.4"/>
	</g>
</g>
<g>
	<g>
		<path class="st0" d="M784.2-68.9C784.2-68.9,784.1-68.9,784.2-68.9c-10.9-16.4-33.1-20.8-49.3-9.9c-0.5,0.3-1,0.7-1.6,1.1
			l-2.8,2.1l-2.7-1.9c-14.1-13.2-36.3-12.6-49.8,1.3c-6.6,6.8-10.1,15.8-9.9,25.3s4,18.3,10.8,24.9c2,1.9,4.2,3.6,6.6,5l6.5,5.1v4
			c0,21.3,17.3,38.6,38.6,38.6c21.3,0,38.6-17.3,38.6-38.6v-4l6.8-5.3C790.8-32.5,794.3-53.4,784.2-68.9z M766.6-33.5l-9.9,7.7
			c-1.9,1.5-3,3.7-3,6.1v7.7c0,12.8-10.4,23.2-23.2,23.2c-12.8,0-23.1-10.4-23.1-23.2v-7.7c0-2.4-1.1-4.6-3-6.1l-9.9-7.7
			c-0.3-0.2-0.6-0.4-0.9-0.6c-1.5-0.8-2.8-1.8-4-3c-3.9-3.7-6-8.7-6.1-14.1s1.9-10.4,5.6-14.3c3.9-4.1,9.2-6.1,14.4-6.1
			c5,0,10,1.9,13.9,5.6c0.3,0.2,0.5,0.5,0.8,0.7l7.7,5.6c2.7,2,6.5,1.9,9.2-0.1l8.1-6.1c4.5-3,9.8-4,15.1-3c5.3,1,9.8,4.1,12.8,8.5
			C777-51.7,775-39.9,766.6-33.5z"/>
	</g>
</g>
<g>
	<g>
		<rect x="809.9" y="-96.9" class="st0" width="15.4" height="15.4"/>
	</g>
</g>
<g>
	<g>
		<rect x="856.2" y="150.1" class="st0" width="15.4" height="15.4"/>
	</g>
</g>
<g>
	<g>
		<path class="st0" d="M1056.8-58.3v15.4c8.5,0,15.4,6.9,15.4,15.4s-6.9,15.4-15.4,15.4V3.5c17,0,30.9-13.8,30.9-30.9
			S1073.9-58.3,1056.8-58.3z"/>
	</g>
</g>
<g>
	<g>
		<rect x="655.5" y="11.2" class="st0" width="15.4" height="15.4"/>
	</g>
</g>
<g>
	<g>
		<rect x="640.1" y="-19.6" class="st0" width="15.4" height="15.4"/>
	</g>
</g>
<g>
	<g>
		<path class="st0" d="M941.1,142.4c-17,0-30.9,13.8-30.9,30.9h15.4c0-8.5,6.9-15.4,15.4-15.4c8.5,0,15.4,6.9,15.4,15.4H972
			C972,156.2,958.1,142.4,941.1,142.4z"/>
	</g>
</g>
<g>
	<g>
		<path class="st0" d="M732.7,72.9h-1c-3.4-13.3-15.5-23.1-29.9-23.1s-26.5,9.9-29.9,23.1h-1c-17,0-30.9,13.8-30.9,30.9
			s13.8,30.9,30.9,30.9h61.7c17,0,30.9-13.8,30.9-30.9S749.8,72.9,732.7,72.9z M732.7,119.2H671c-8.5,0-15.4-6.9-15.4-15.4
			c0-8.5,6.9-15.4,15.4-15.4h7.7c4.3,0,7.7-3.5,7.7-7.7c0-8.5,6.9-15.4,15.4-15.4s15.4,6.9,15.4,15.4c0,4.3,3.5,7.7,7.7,7.7h7.7
			c8.5,0,15.4,6.9,15.4,15.4C748.2,112.3,741.2,119.2,732.7,119.2z"/>
	</g>
</g>
<g>
	<g>
		<path class="st0" d="M717.3,119.2h-30.9c-4.3,0-7.7,3.5-7.7,7.7v30.9c0,4.3,3.5,7.7,7.7,7.7h30.9c4.3,0,7.7-3.4,7.7-7.7v-30.9
			C725,122.7,721.6,119.2,717.3,119.2z M709.6,150.1h-15.4v-15.4h15.4L709.6,150.1L709.6,150.1z"/>
	</g>
</g>
<g>
	<g>
		<path class="st0" d="M1049.1,96.1c-12.8,0-23.2,10.4-23.2,23.1s10.4,23.2,23.2,23.2c12.8,0,23.2-10.4,23.2-23.2
			S1061.9,96.1,1049.1,96.1z M1049.1,126.9c-4.3,0-7.7-3.5-7.7-7.7c0-4.3,3.5-7.7,7.7-7.7c4.3,0,7.7,3.5,7.7,7.7
			C1056.8,123.5,1053.4,126.9,1049.1,126.9z"/>
	</g>
</g>
<g>
	<g>
		<path class="st0" d="M1049.1,65.2c-29.8,0-54,24.2-54,54s24.2,54,54,54s54-24.2,54-54S1078.9,65.2,1049.1,65.2z M1049.1,157.8
			c-21.3,0-38.6-17.3-38.6-38.6c0-21.3,17.3-38.6,38.6-38.6s38.6,17.3,38.6,38.6S1070.4,157.8,1049.1,157.8z"/>
	</g>
</g>
<g>
	<path class="st0" d="M437,345.3l-45.1,64.8L360,384c-3.4-2.8-8.5-2.3-11.3,1.1c-2.8,3.4-2.3,8.5,1.1,11.3l38.6,31.7
		c1.5,1.2,3.3,1.8,5.1,1.8c0.4,0,0.7,0,1.1-0.1c2.2-0.3,4.2-1.5,5.5-3.4l50.1-72c2.5-3.7,1.6-8.7-2-11.2
		C444.5,340.8,439.5,341.7,437,345.3z"/>
	<path class="st0" d="M443.6,297.4v-157V59.8c0-4.5-3.6-8.1-8.1-8.1h-40.3V27.6c0-4.5-3.6-8.1-8.1-8.1h-56.4c-4.4,0-8.1,3.6-8.1,8.1
		v24.2H145.4V27.6c0-4.5-3.6-8.1-8.1-8.1H80.9c-4.4,0-8.1,3.6-8.1,8.1v24.2H32.6c-4.4,0-8.1,3.6-8.1,8.1v80.6v330.4
		c0,4.5,3.6,8.1,8.1,8.1h307.1c16.1,10.2,35.2,16.1,55.6,16.1C453,495,500,448,500,390.2C500,349.9,477.1,314.9,443.6,297.4z
		 M338.8,35.6h40.3v24.2V84h-40.3V59.8V35.6z M89,35.6h40.3v24.2V84H89V59.8V35.6z M40.6,67.9h32.2V92c0,4.5,3.6,8.1,8.1,8.1h56.4
		c4.4,0,8.1-3.6,8.1-8.1V67.9h177.3V92c0,4.5,3.6,8.1,8.1,8.1h56.4c4.4,0,8.1-3.6,8.1-8.1V67.9h32.2v64.5H40.6V67.9z M40.6,462.8
		V148.4h386.8v142.1c-1.6-0.5-3.2-0.9-4.8-1.4c-1.5-0.4-3-0.8-4.5-1.2c-1.4-0.3-2.7-0.6-4.1-0.8c-2-0.4-3.9-0.7-5.9-0.9
		c-1.1-0.1-2.2-0.3-3.3-0.4c-3.2-0.3-6.4-0.5-9.6-0.5c-2.7,0-5.4,0.2-8.1,0.4v-8.5v-16.1v-72.5h-72.5h-16.1h-56.4H226h-56.4h-16.1
		H80.9v72.5v16.1v56.4v16.1v72.5h72.5h16.1H226h16.1h53.5c0.2,0.7,0.5,1.4,0.8,2.1c0.7,2,1.3,3.9,2.1,5.8c0.4,1.1,1,2.1,1.5,3.1
		c0.9,2,1.9,4.1,2.9,6.1c0.5,0.9,1,1.7,1.5,2.5c1.2,2.1,2.4,4.2,3.7,6.1c0.5,0.7,1,1.4,1.5,2.2c1.4,2,2.9,4,4.4,5.9
		c0.6,0.7,1.2,1.4,1.8,2.1c1.2,1.5,2.4,2.9,3.8,4.3L40.6,462.8L40.6,462.8z M349.4,296.2c-0.9,0.4-1.8,0.8-2.6,1.3
		c-1.5,0.8-3,1.7-4.4,2.5c-1.3,0.7-2.6,1.5-3.8,2.3c-1.3,0.8-2.5,1.7-3.7,2.5c-1.4,1-2.7,2-4.1,3.1c-1.1,0.8-2.2,1.7-3.2,2.6
		c-1.4,1.2-2.8,2.5-4.1,3.7c-0.9,0.9-1.9,1.7-2.8,2.6c-1.5,1.5-2.8,3.1-4.2,4.6c-0.6,0.7-1.2,1.3-1.8,2v-46H371v11
		c-0.1,0-0.3,0.1-0.4,0.1C363.2,290.3,356.1,292.9,349.4,296.2z M295.1,359.6c-0.3,0.9-0.5,1.9-0.7,2.8c-0.6,2.3-1.3,4.7-1.8,7.1
		c-0.4,1.9-0.6,3.8-0.9,5.6c-0.2,1.5-0.5,3-0.7,4.6c-0.3,3.5-0.5,7-0.5,10.5c0,2.9,0.2,5.9,0.4,8.8c0,0.5,0,1.1,0.1,1.6
		c0.1,1.3,0.4,2.6,0.6,3.9v0c0.1,0.6,0.1,1.2,0.2,1.8h-49.7v-56.4h56.4v0.1c-0.1,0.2-0.1,0.4-0.2,0.6
		C297.1,353.5,296,356.5,295.1,359.6z M97,349.9h56.4v56.4H97V349.9z M97,277.4h56.4v56.4H97V277.4z M371.1,261.3h-56.4v-56.4h56.4
		V261.3z M298.5,261.3h-56.4v-56.4h56.4V261.3z M298.5,333.8h-56.4v-56.4h56.4V333.8z M169.6,277.4H226v56.4h-56.4V277.4z
		 M226,261.3h-56.4v-56.4H226V261.3z M153.4,261.3H97v-56.4h56.4V261.3z M169.6,349.9H226v56.4h-56.4V349.9z M395.2,478.9
		c-18.2,0-35.1-5.5-49.2-15c-2.7-1.8-5.3-3.8-7.8-5.9c-0.9-0.7-1.7-1.5-2.5-2.3c-1.6-1.4-3.1-2.9-4.6-4.5c-0.9-1-1.9-2-2.7-3
		c-1.3-1.5-2.6-3.1-3.8-4.7c-0.8-1-1.6-2-2.3-3.1c-1.8-2.6-3.5-5.2-5-8c-0.3-0.6-0.6-1.3-1-2c-1.2-2.3-2.3-4.6-3.2-7
		c-0.4-1-0.8-2.1-1.2-3.2c-0.8-2.1-1.5-4.3-2.1-6.4c-0.1-0.5-0.3-1-0.4-1.5c-0.9-3.5-1.6-7.1-2.1-10.6c0-0.2-0.1-0.5-0.1-0.8
		c-0.5-3.6-0.7-7.2-0.7-10.7c0-3.1,0.2-6.1,0.5-9.1c0-0.2,0.1-0.5,0.1-0.7c0.3-2.7,0.7-5.5,1.3-8.2c0.1-0.3,0.1-0.5,0.2-0.8
		c0.6-2.7,1.3-5.3,2.1-8c0.1-0.3,0.2-0.6,0.3-0.9c0.8-2.5,1.7-5,2.8-7.5c1-2.3,2.1-4.6,3.3-6.8l0.8-1.4c0.3-0.6,0.7-1.1,1-1.7
		c1.4-2.4,2.9-4.7,4.5-6.9c0.4-0.5,0.8-1.1,1.2-1.6c1.5-1.9,3-3.8,4.6-5.5c0.6-0.6,1.1-1.2,1.7-1.9c1.6-1.7,3.2-3.3,4.9-4.8
		c0.6-0.5,1.2-1.1,1.8-1.6c2-1.7,4.1-3.3,6.2-4.8c0.3-0.2,0.7-0.5,1-0.7c10.5-7.3,22.6-12.3,35.6-14.4l0.2,0
		c4.8-0.8,9.6-1.3,14.6-1.3c3.1,0,6.3,0.2,9.3,0.5c0.5,0,1,0.2,1.4,0.2c2.6,0.3,5.3,0.7,7.9,1.3c0.3,0.1,0.6,0.2,0.9,0.2
		c2.8,0.6,5.5,1.4,8.2,2.3c0.2,0.1,0.4,0.1,0.5,0.2c2.8,1,5.5,2,8.2,3.3c30.6,14,52,44.8,52,80.6
		C483.9,439.1,444.1,478.9,395.2,478.9z"/>
</g>
</svg>
