<?xml version="1.0" encoding="utf-8"?>
<!-- Generator: Adobe Illustrator 23.0.6, SVG Export Plug-In . SVG Version: 6.00 Build 0)  -->
<svg version="1.1" id="Calque_1" xmlns="http://www.w3.org/2000/svg" xmlns:xlink="http://www.w3.org/1999/xlink" x="0px" y="0px"
	 width="20px" height="25px" viewBox="0 0 50 50" style="enable-background:new 0 0 50 50;" xml:space="preserve">
<style type="text/css">
	.st0{fill:#0B45EF;}
</style>
<g transform="translate(0 0.5)">
	<g>
		<path class="st0" d="M47,10c0-0.7-0.2-1.3-0.6-1.7c0,0,0,0,0,0c-0.5-0.5-1.2-0.9-2-0.9H5.6c-0.8,0-1.5,0.3-2,0.9c0,0,0,0,0,0
			C3.2,8.7,3,9.3,3,10v28.2c0,0.7,0.2,1.3,0.7,1.8c0,0,0.1,0.1,0.1,0.1c0,0,0.1,0.1,0.1,0.1c0.5,0.4,1.1,0.7,1.8,0.7h38.7
			c0.7,0,1.3-0.3,1.8-0.7c0,0,0.1-0.1,0.1-0.1c0,0,0.1-0.1,0.1-0.1c0.4-0.5,0.7-1.1,0.7-1.8L47,10L47,10z M36.2,28.7
			c-0.3-0.3-0.9-0.3-1.2,0c-0.3,0.3-0.3,0.9,0,1.2L44,39H6l9.1-9.1c0.3-0.3,0.3-0.9,0-1.2c-0.3-0.3-0.9-0.3-1.2,0l-9.1,9.1V10.6
			l14.1,15.2c1.6,1.7,3.8,2.7,6.1,2.7s4.5-1,6.1-2.7l14.1-15.2v27.2L36.2,28.7z M5.8,9.1h38.4L29.8,24.6c-1.3,1.4-3,2.1-4.8,2.1
			s-3.6-0.7-4.8-2.1L5.8,9.1z"/>
	</g>
</g>
</svg>
