<?xml version="1.0" encoding="utf-8"?>
<!-- Generator: Adobe Illustrator 24.0.1, SVG Export Plug-In . SVG Version: 6.00 Build 0)  -->
<svg version="1.1" id="Layer_1" xmlns="http://www.w3.org/2000/svg" xmlns:xlink="http://www.w3.org/1999/xlink" x="0px" y="0px"
	 width="25px" height="25px" viewBox="0 0 512 512" style="enable-background:new 0 0 512 512;" xml:space="preserve">
<style type="text/css">
	.st0{fill:#004CC5;}
</style>
<g>
	<path class="st0" d="M126.4,330.4c43.1,51.6,95.1,92.2,154.4,120.9c22.6,10.7,52.8,23.4,86.4,25.6c2.1,0.1,4.1,0.2,6.2,0.2
		c22.6,0,40.7-7.8,55.5-23.8c0.1-0.1,0.3-0.3,0.4-0.5c5.3-6.3,11.2-12.1,17.5-18.1c4.3-4.1,8.6-8.3,12.8-12.7
		c19.3-20.1,19.3-45.7-0.2-65.2l-54.5-54.5c-9.2-9.6-20.3-14.7-31.9-14.7s-22.8,5.1-32.3,14.6l-32.4,32.4c-3-1.7-6.1-3.3-9-4.7
		c-3.6-1.8-7-3.5-10-5.4c-29.5-18.8-56.4-43.2-82-74.7c-13-16.4-21.7-30.2-27.7-44.2c8.5-7.7,16.5-15.8,24.2-23.7
		c2.7-2.8,5.5-5.6,8.3-8.4c9.8-9.8,15-21.1,15-32.6c0-11.5-5.2-22.8-15-32.6l-27-27c-3.2-3.2-6.2-6.3-9.2-9.4
		c-6-6.2-12.2-12.5-18.4-18.2c-9.3-9.2-20.3-14-31.9-14c-11.5,0-22.6,4.8-32.3,14L59.3,87.6c-12.3,12.3-19.3,27.3-20.8,44.6
		c-1.7,21.7,2.3,44.7,12.6,72.5C67,247.8,90.9,287.8,126.4,330.4z M60.6,134.1c1.1-12.1,5.7-22.1,14.4-30.8l33.7-33.7
		c5.3-5.1,11.1-7.7,16.7-7.7c5.5,0,11.1,2.6,16.3,7.9c6.1,5.6,11.8,11.5,17.9,17.8c3.1,3.2,6.3,6.3,9.4,9.6l27,27
		c5.6,5.6,8.5,11.3,8.5,16.9c0,5.6-2.9,11.3-8.5,16.9c-2.8,2.8-5.6,5.7-8.4,8.5c-8.4,8.5-16.3,16.6-25,24.3
		c-0.2,0.2-0.3,0.3-0.5,0.5c-7.5,7.5-6.3,14.7-4.5,20.1c0.1,0.3,0.2,0.5,0.3,0.7c7,16.8,16.7,32.7,31.8,51.8
		c27.2,33.5,55.8,59.6,87.4,79.6c3.9,2.5,8.1,4.5,12,6.5c3.6,1.8,7,3.5,10,5.4c0.4,0.2,0.6,0.4,1,0.5c3,1.5,5.9,2.3,8.8,2.3
		c7.3,0,12-4.6,13.5-6.2l33.9-33.9c5.3-5.3,11-8.1,16.6-8.1c6.9,0,12.5,4.3,16,8.1l54.7,54.6c10.9,10.9,10.8,22.7-0.3,34.2
		c-3.8,4.1-7.8,8-12.1,12.1c-6.3,6.2-13,12.5-18.9,19.7c-10.4,11.2-22.8,16.5-38.9,16.5c-1.5,0-3.2-0.1-4.7-0.2
		c-29.7-1.9-57.4-13.5-78.1-23.4c-56.4-27.3-105.9-66-146.9-115.1c-33.8-40.7-56.6-78.6-71.6-119.2
		C62.7,172.4,59.2,152.3,60.6,134.1z"/>
</g>
</svg>
