<?xml version="1.0" encoding="utf-8"?>
<!-- Generator: Adobe Illustrator 24.0.1, SVG Export Plug-In . SVG Version: 6.00 Build 0)  -->
<svg version="1.1" id="Layer_1" xmlns="http://www.w3.org/2000/svg" xmlns:xlink="http://www.w3.org/1999/xlink" x="0px" y="0px"
	 width="25px" height="25px" viewBox="0 0 512 512" style="enable-background:new 0 0 512 512;" xml:space="preserve">
<style type="text/css">
	.st0{fill:#004CC5;}
</style>
<g>
	<path class="st0" d="M460.7,150H353.1l-18.2-49c-4.3-11.6-17.1-20.2-31.1-21.5v-1.4c0-26.1-21.2-47.3-47.3-47.3
		s-47.3,21.2-47.3,47.3v1.4c-14,1.3-26.8,9.9-31.1,21.5l-18.2,49H52.3c-22.9,0-41.6,18.6-41.6,41.6v247.9
		c0,22.9,18.6,41.6,41.6,41.6h408.4c22.9,0,41.6-18.6,41.6-41.6V191.6C502.3,168.7,483.6,150.1,460.7,150L460.7,150z M256.5,51.4
		c14.8,0,26.8,12,26.8,26.8v11.2c0,0.1,0,0.1,0,0.1s0,0.1,0,0.1v25h-53.6V89.7c0-0.1,0-0.1,0-0.2s0-0.1,0-0.2V78.2
		C229.7,63.4,241.7,51.4,256.5,51.4z M197.3,108.2c1.2-3.3,6.2-6.8,11.9-7.9v24.6c0,5.7,4.6,10.2,10.2,10.2h74.1
		c5.7,0,10.2-4.6,10.2-10.2v-24.6c5.7,1.2,10.7,4.6,11.9,7.9l15.6,41.8H181.8L197.3,108.2z M481.8,439.5c0,11.6-9.5,21.1-21.1,21.1
		H52.3c-11.6,0-21.1-9.5-21.1-21.1V191.6c0-11.6,9.5-21.1,21.1-21.1h408.4c11.6,0,21.1,9.5,21.1,21.1L481.8,439.5L481.8,439.5z"/>
	<path class="st0" d="M253.5,93.3h5.9c5.7,0,10.2-4.6,10.2-10.2c0-5.7-4.6-10.2-10.2-10.2h-5.9c-5.7,0-10.2,4.6-10.2,10.2
		C243.3,88.7,247.9,93.3,253.5,93.3z"/>
	<path class="st0" d="M291.1,264.8h123.5c5.7,0,10.2-4.6,10.2-10.2s-4.6-10.2-10.2-10.2H291.1c-5.7,0-10.2,4.6-10.2,10.2
		S285.5,264.8,291.1,264.8z"/>
	<path class="st0" d="M450.4,305.3H291.1c-5.7,0-10.2,4.6-10.2,10.2c0,5.7,4.6,10.2,10.2,10.2h159.3c5.7,0,10.2-4.6,10.2-10.2
		C460.7,309.9,456.1,305.3,450.4,305.3z"/>
	<path class="st0" d="M450.4,366.3H291.1c-5.7,0-10.2,4.6-10.2,10.2s4.6,10.2,10.2,10.2h159.3c5.7,0,10.2-4.6,10.2-10.2
		S456.1,366.3,450.4,366.3z"/>
	<path class="st0" d="M143.7,321.4c24.1,0,43.7-24.2,43.7-53.9c0-27.6-17.6-46.1-43.7-46.1c-26.1,0-43.7,18.5-43.7,46.1
		C100,297.2,119.6,321.4,143.7,321.4L143.7,321.4z M143.7,241.8c14.7,0,23.2,9.4,23.2,25.6c0,18.1-10.6,33.5-23.2,33.5
		c-12.6,0-23.2-15.3-23.2-33.5C120.5,251.2,129,241.8,143.7,241.8z"/>
	<path class="st0" d="M218.8,344.2c-33-14.3-38.1-16.7-46-18.8c-19.2-5.2-38.7-5.2-57.9,0c-8.6,2.3-39.6,15.7-45,18.4
		c-8.7,2.7-17.6,12.8-17.6,25.5V392c0,9.8,8,17.8,17.8,17.8h147.5c9.8,0,17.8-8,17.8-17.8v-22.6
		C235.3,358.4,228.8,348.6,218.8,344.2L218.8,344.2z M214.9,389.3H72.8v-19.9c0-2.7,1.6-5.2,4.2-6.3c0.1,0,0.2-0.1,0.4-0.2
		c5.1-2.3,35.4-15.7,42.9-17.7c15.7-4.2,31.6-4.2,47.3,0c6.6,1.8,12.9,4.7,43.2,17.8c2.5,1.1,4.2,3.6,4.2,6.3V389.3z"/>
</g>
</svg>
