<?xml version="1.0" encoding="utf-8"?>
<!-- Generator: Adobe Illustrator 23.0.6, SVG Export Plug-In . SVG Version: 6.00 Build 0)  -->
<svg version="1.1" id="Layer_1" xmlns="http://www.w3.org/2000/svg" xmlns:xlink="http://www.w3.org/1999/xlink" x="0px" y="0px"
	 width="25px" height="25px" viewBox="0 0 480 480" style="enable-background:new 0 0 480 480;" xml:space="preserve">
<style type="text/css">
	.st0{fill:#FFFFFF;}
</style>
<g>
	<g>
		<g>
			<path class="st0" d="M451,126.7l-90.8-8.6l-17.7-53.2C335.9,45.2,317.6,32,296.9,32H183.1c-20.7,0-39,13.2-45.5,32.8L119.8,118
				L29,126.7C12.4,128.3,0,142,0,158.5V416c0,17.6,14.4,32,32,32h416c17.6,0,32-14.4,32-32V158.5C480,142,467.6,128.3,451,126.7z
				 M32,416V158.5l101.2-9.6c6.3-0.6,11.7-4.9,13.7-10.9l21-63.1c2.2-6.5,8.3-10.9,15.2-10.9h113.9c6.9,0,13,4.4,15.2,10.9l21,63.1
				c2,6,7.4,10.3,13.7,10.9l101.2,9.6l0,257.5H32z"/>
			<path class="st0" d="M240,160c-61.7,0-112,50.2-112,112s50.3,112,112,112s112-50.2,112-112S301.7,160,240,160z M240,352
				c-44.1,0-80-35.9-80-80s35.9-80,80-80s80,35.9,80,80S284.1,352,240,352z"/>
			<path class="st0" d="M232,208c-30.9,0-56,25.1-56,56c0,4.4,3.6,8,8,8s8-3.6,8-8c0-22,17.9-40,40-40c4.4,0,8-3.6,8-8
				S236.4,208,232,208z"/>
		</g>
	</g>
</g>
</svg>
