<?xml version="1.0" encoding="utf-8"?>
<!-- Generator: Adobe Illustrator 24.0.1, SVG Export Plug-In . SVG Version: 6.00 Build 0)  -->
<svg version="1.1" id="Layer_1" xmlns="http://www.w3.org/2000/svg" xmlns:xlink="http://www.w3.org/1999/xlink" x="0px" y="0px"
	 width="25px" height="25px" viewBox="0 0 512 512" style="enable-background:new 0 0 512 512;" xml:space="preserve">
<style type="text/css">
	.st0{fill:#004CC5;}
</style>
<g>
	<g>
		<path class="st0" d="M481.6,318.2H34c-4.3,0-7.7,3.4-7.7,7.7C26.3,415.3,99,488,188.4,488h138.9c89.4,0,162.1-72.7,162.1-162.1
			C489.3,321.7,485.9,318.2,481.6,318.2z M327.3,472.6H188.4c-78.3,0-142.4-61.6-146.4-138.9h431.7
			C469.7,410.9,405.5,472.6,327.3,472.6z"/>
	</g>
</g>
<g>
	<g>
		<path class="st0" d="M419.9,133.1c0-0.6,0-1.1-0.1-2c-1.2-12.8-10-23.3-21.6-27.2l8.7-8.7c15.1-14.8,16.7-38.6,3.4-55.3
			c-14.2-17.3-39.8-19.7-57-5.5c-1,0.8-1.9,1.7-2.9,2.6l-9.5,9.6c-4-11.6-14.5-20.3-27.5-21.5c-17.1-0.9-31.6,12.2-32.5,29.2
			c0,0.6,0,1.1,0,1.7v11.8c-4.5-2.6-9.8-4.1-15.4-4.2c-0.6,0-1.1,0-2,0.1c-16.5,1.5-29.2,15.7-28.9,32.1v10.5
			c-4.6-2.7-9.9-4.1-15.4-4.1c-0.6,0-1.1,0-2,0.1c-16.5,1.5-29.2,15.7-28.9,32.1v114.4c0,4.3,3.5,7.7,7.7,7.7h131.2
			c17,0,30.9-13.8,30.9-30.9c0-5.6-1.5-10.9-4.1-15.4h10.4c16.6,0.5,30.8-12.4,32.3-29.2c0.3-6.3-1.2-12.2-4.2-17.3
			c6.9-0.8,13.3-3.8,18.3-8.8C416.7,149.1,419.9,141.3,419.9,133.1z M399.9,144c-2.9,2.9-6.8,4.5-10.9,4.5c0,0,0,0,0,0h-23.1
			c-4.3,0-7.7,3.5-7.7,7.7c0,4.3,3.4,7.7,7.7,7.7l0.8,0c8.5,0.5,15,7.7,14.6,15.9c-0.8,8.5-8,15.1-16.8,14.9h-37.3
			c-4.3,0-7.7,3.5-7.7,7.7s3.4,7.7,7.7,7.7c8.5,0,15.4,6.9,15.4,15.4s-6.9,15.4-15.4,15.4H203.8V134.2c-0.1-8.5,6.4-15.8,14.6-16.6
			l0.8,0c8.5,0,15.4,6.9,15.4,15.4v0.1c0,4.3,3.4,7.7,7.7,7.7c0,0,0,0,0,0c4.3,0,7.7-3.4,7.7-7.7v0V95.6
			c-0.1-8.5,6.4-15.8,14.6-16.6l0.8,0c8.5,0,15.4,6.9,15.4,15.4v0c0,4.3,3.4,7.7,7.7,7.7c0,0,0,0,0,0c4.3,0,7.7-3.4,7.7-7.7v0V55.9
			l0-0.9c0.4-8.5,7.6-15,15.9-14.6c8.5,0.8,15.1,8.1,14.9,16.8v6.4c0,3.1,1.9,5.9,4.8,7.1c2.9,1.2,6.2,0.5,8.4-1.7l20.9-21.2
			c0.6-0.6,1.2-1.1,1.8-1.6c10.7-8.8,26.5-7.3,35.2,3.3c8.2,10.4,7.3,25.3-2.3,34.7l-20.3,20.3c-2.2,2.2-2.9,5.5-1.7,8.4
			c1.2,2.9,4,4.8,7.1,4.8h6.4c0.2,0,0.3,0,0.4,0c8.4,0,15.6,6.5,16.3,14.6l0,0.8C404.5,137.2,402.9,141.1,399.9,144z"/>
	</g>
</g>
<g>
	<g>
		
			<rect x="105" y="179.3" transform="matrix(0.7071 -0.7071 0.7071 0.7071 -56.7329 237.0879)" class="st0" width="305.6" height="15.4"/>
	</g>
</g>
<g>
	<g>
		<rect x="311.8" y="86.8" class="st0" width="15.4" height="38.6"/>
	</g>
</g>
<g>
	<g>
		<rect x="265.5" y="125.4" class="st0" width="15.4" height="46.3"/>
	</g>
</g>
<g>
	<g>
		<rect x="219.2" y="163.9" class="st0" width="15.4" height="54"/>
	</g>
</g>
<g>
	<g>
		<rect x="319.5" y="117.6" class="st0" width="38.6" height="15.4"/>
	</g>
</g>
<g>
	<g>
		<rect x="273.2" y="163.9" class="st0" width="46.3" height="15.4"/>
	</g>
</g>
<g>
	<g>
		<rect x="226.9" y="210.2" class="st0" width="54" height="15.4"/>
	</g>
</g>
<g>
	<g>
		<path class="st0" d="M170.3,60.7C170.3,60.6,170.3,60.6,170.3,60.7c-10.9-16.4-33.1-20.8-49.3-9.9c-0.5,0.3-1,0.7-1.6,1.1
			l-2.8,2.1l-2.7-1.9c-14.1-13.2-36.3-12.6-49.8,1.3c-6.6,6.8-10.1,15.8-9.9,25.3c0.2,9.5,4,18.3,10.8,24.9c2,1.9,4.2,3.6,6.6,5
			l6.5,5.1v4c0,21.3,17.3,38.6,38.6,38.6s38.6-17.3,38.6-38.6v-4l6.8-5.3C176.9,97.1,180.5,76.2,170.3,60.7z M152.7,96.1l-9.9,7.7
			c-1.9,1.5-3,3.7-3,6.1v7.7c0,12.8-10.4,23.2-23.2,23.2s-23.2-10.4-23.2-23.2v-7.7c0-2.4-1.1-4.6-3-6.1l-9.9-7.7
			c-0.3-0.2-0.6-0.4-0.9-0.6c-1.5-0.8-2.8-1.8-4-3c-3.9-3.7-6-8.7-6.1-14.1C69.6,73,71.6,68,75.3,64.1C79.2,60,84.5,58,89.8,58
			c5,0,10,1.9,13.9,5.6c0.3,0.2,0.5,0.5,0.8,0.7l7.7,5.6c2.7,2,6.5,1.9,9.2-0.1l8.1-6.1c4.5-3,9.8-4,15.1-3c5.3,1,9.8,4.1,12.8,8.5
			C163.2,77.9,161.2,89.7,152.7,96.1z"/>
	</g>
</g>
<g>
	<g>
		<rect x="196.1" y="32.7" class="st0" width="15.4" height="15.4"/>
	</g>
</g>
<g>
	<g>
		<rect x="242.4" y="279.6" class="st0" width="15.4" height="15.4"/>
	</g>
</g>
<g>
	<g>
		<path class="st0" d="M443,71.3v15.4c8.5,0,15.4,6.9,15.4,15.4s-6.9,15.4-15.4,15.4V133c17,0,30.9-13.8,30.9-30.9
			S460,71.3,443,71.3z"/>
	</g>
</g>
<g>
	<g>
		<rect x="41.7" y="140.8" class="st0" width="15.4" height="15.4"/>
	</g>
</g>
<g>
	<g>
		<rect x="26.3" y="109.9" class="st0" width="15.4" height="15.4"/>
	</g>
</g>
<g>
	<g>
		<path class="st0" d="M327.3,271.9c-17,0-30.9,13.8-30.9,30.9h15.4c0-8.5,6.9-15.4,15.4-15.4c8.5,0,15.4,6.9,15.4,15.4h15.4
			C358.1,285.8,344.3,271.9,327.3,271.9z"/>
	</g>
</g>
<g>
	<g>
		<path class="st0" d="M118.9,202.5h-1c-3.4-13.3-15.5-23.2-29.9-23.2s-26.5,9.9-29.9,23.2h-1c-17,0-30.9,13.8-30.9,30.9
			s13.8,30.9,30.9,30.9h61.7c17,0,30.9-13.8,30.9-30.9C149.8,216.3,135.9,202.5,118.9,202.5z M118.9,248.8H57.2
			c-8.5,0-15.4-6.9-15.4-15.4c0-8.5,6.9-15.4,15.4-15.4h7.7c4.3,0,7.7-3.5,7.7-7.7c0-8.5,6.9-15.4,15.4-15.4s15.4,6.9,15.4,15.4
			c0,4.3,3.5,7.7,7.7,7.7h7.7c8.5,0,15.4,6.9,15.4,15.4C134.3,241.9,127.4,248.8,118.9,248.8z"/>
	</g>
</g>
<g>
	<g>
		<path class="st0" d="M103.5,248.8H72.6c-4.3,0-7.7,3.5-7.7,7.7v30.9c0,4.3,3.5,7.7,7.7,7.7h30.9c4.3,0,7.7-3.4,7.7-7.7v-30.9
			C111.2,252.2,107.7,248.8,103.5,248.8z M95.8,279.6H80.3v-15.4h15.4L95.8,279.6L95.8,279.6z"/>
	</g>
</g>
<g>
	<g>
		<path class="st0" d="M435.3,225.6c-12.8,0-23.1,10.4-23.1,23.1c0,12.8,10.4,23.1,23.1,23.1s23.1-10.4,23.1-23.1
			C458.5,236,448.1,225.6,435.3,225.6z M435.3,256.5c-4.3,0-7.7-3.5-7.7-7.7c0-4.3,3.5-7.7,7.7-7.7s7.7,3.5,7.7,7.7
			C443,253,439.6,256.5,435.3,256.5z"/>
	</g>
</g>
<g>
	<g>
		<path class="st0" d="M435.3,194.8c-29.8,0-54,24.2-54,54s24.2,54,54,54s54-24.2,54-54S465.1,194.8,435.3,194.8z M435.3,287.4
			c-21.3,0-38.6-17.3-38.6-38.6c0-21.3,17.3-38.6,38.6-38.6s38.6,17.3,38.6,38.6S456.6,287.4,435.3,287.4z"/>
	</g>
</g>
</svg>
