<?xml version="1.0" encoding="utf-8"?>
<!-- Generator: Adobe Illustrator 24.0.1, SVG Export Plug-In . SVG Version: 6.00 Build 0)  -->
<svg version="1.1" id="Layer_1" xmlns="http://www.w3.org/2000/svg" xmlns:xlink="http://www.w3.org/1999/xlink" x="0px" y="0px"
	 width="25px" height="25px" viewBox="0 0 512 512" style="enable-background:new 0 0 512 512;" xml:space="preserve">
<style type="text/css">
	.st0{fill:#004CC5;}
</style>
<path class="st0" d="M204.9,403.5h108.3c6.4,0,11.6-5.2,11.6-11.6v-15.5c0-24.1-13.1-45.2-32.5-56.7c8.1-8.4,13.1-19.7,13.1-32.3
	c0-25.6-20.8-46.4-46.4-46.4s-46.4,20.8-46.4,46.4c0,12.5,5,23.9,13.1,32.3c-19.4,11.4-32.5,32.5-32.5,56.7v15.5
	C193.3,398.3,198.5,403.5,204.9,403.5z M235.8,287.5c0-12.8,10.4-23.2,23.2-23.2c12.8,0,23.2,10.4,23.2,23.2s-10.4,23.2-23.2,23.2
	C246.2,310.7,235.8,300.3,235.8,287.5z M216.5,376.5c0-23.5,19.1-42.5,42.5-42.5c23.5,0,42.5,19.1,42.5,42.5v3.9h-85.1V376.5z"/>
<path class="st0" d="M414.5,101.1h-1.7c-1.7-10.5-5.7-20.3-11.6-28.2c-8.7-11.6-21-18.2-33.9-18.2s-25.2,6.6-33.9,18.2
	c-5.9,7.9-9.9,17.7-11.6,28.2h-17.3c-1.7-10.5-5.7-20.3-11.6-28.2c-8.7-11.6-21-18.2-33.9-18.2s-25.2,6.6-33.9,18.2
	c-5.9,7.9-9.9,17.7-11.6,28.2h-17.3c-1.7-10.5-5.7-20.3-11.6-28.2c-8.7-11.6-21-18.2-33.9-18.2c-12.8,0-25.2,6.6-33.9,18.2
	c-5.9,7.9-9.9,17.7-11.6,28.2h-1.7c-23.5,0-42.5,19.1-42.5,42.5v264.5c0,23.5,19.1,42.5,42.5,42.5h310.9c23.5,0,42.5-19.1,42.5-42.5
	V143.7C457,120.2,438,101.1,414.5,101.1z M367.3,77.9c9.9,0,18.6,9.8,21.8,23.2h-43.6C348.8,87.8,357.4,77.9,367.3,77.9z M259,77.9
	c9.9,0,18.6,9.8,21.8,23.2h-43.6C240.5,87.8,249.2,77.9,259,77.9z M150.8,77.9c9.9,0,18.6,9.8,21.8,23.2h-43.6
	C132.2,87.8,140.9,77.9,150.8,77.9z M84.2,143.7c0-10.7,8.7-19.3,19.3-19.3h1.7c1.7,10.5,5.7,20.3,11.6,28.2
	c8.7,11.6,21,18.2,33.9,18.2c6.4,0,11.6-5.2,11.6-11.6c0-6.4-5.2-11.6-11.6-11.6c-9.9,0-18.6-9.8-21.8-23.2h84.6
	c1.7,10.5,5.7,20.3,11.6,28.2c8.7,11.6,21,18.2,33.9,18.2c6.4,0,11.6-5.2,11.6-11.6c0-6.4-5.2-11.6-11.6-11.6
	c-9.9,0-18.6-9.8-21.8-23.2h84.6c1.7,10.5,5.7,20.3,11.6,28.2c8.7,11.6,21,18.2,33.9,18.2c6.4,0,11.6-5.2,11.6-11.6
	c0-6.4-5.2-11.6-11.6-11.6c-9.9,0-18.6-9.8-21.8-23.2h69c10.7,0,19.3,8.7,19.3,19.3v50.3H84.2V143.7z M433.8,408.2
	c0,10.7-8.7,19.3-19.3,19.3H103.6c-10.7,0-19.3-8.7-19.3-19.3v-191h349.6V408.2z"/>
</svg>
