<?xml version="1.0" encoding="utf-8"?>
<!-- Generator: Adobe Illustrator 24.0.1, SVG Export Plug-In . SVG Version: 6.00 Build 0)  -->
<svg version="1.1" id="Calque_1" xmlns="http://www.w3.org/2000/svg" xmlns:xlink="http://www.w3.org/1999/xlink" x="0px" y="0px"
	 width="25px" height="25px" viewBox="0 0 50 50" style="enable-background:new 0 0 50 50;" xml:space="preserve">

<path class="st0"  style="fill:#0B45EF" d="M41.6,8.4C37.2,4,31.3,1.5,25,1.5S12.8,4,8.4,8.4S1.5,18.7,1.5,25S4,37.2,8.4,41.6s10.3,6.9,16.6,6.9
	s12.2-2.4,16.6-6.9s6.9-10.3,6.9-16.6S46,12.8,41.6,8.4z M11.7,40.9c0.8-6.7,6.5-11.8,13.3-11.8c3.6,0,6.9,1.4,9.5,3.9
	c2.1,2.1,3.5,4.9,3.8,7.9c-3.6,3-8.2,4.8-13.3,4.8S15.3,43.9,11.7,40.9z M25,26.2c-3.9,0-7.1-3.2-7.1-7.1c0-3.9,3.2-7.1,7.1-7.1
	s7.1,3.2,7.1,7.1C32.1,23,28.9,26.2,25,26.2z M40.7,38.6c-0.7-2.8-2.2-5.4-4.2-7.5c-1.7-1.7-3.7-3-5.9-3.8c2.6-1.8,4.3-4.8,4.3-8.2
	c0-5.4-4.4-9.9-9.9-9.9s-9.9,4.4-9.9,9.9c0,3.4,1.7,6.4,4.4,8.2c-2,0.7-3.9,1.9-5.5,3.4c-2.3,2.2-3.9,4.9-4.7,7.9
	C6.2,34.9,4.3,30.2,4.3,25C4.3,13.6,13.6,4.3,25,4.3S45.7,13.6,45.7,25C45.7,30.2,43.8,34.9,40.7,38.6z"/>
</svg>
