<?xml version="1.0" encoding="utf-8"?>
<!-- Generator: Adobe Illustrator 24.0.3, SVG Export Plug-In . SVG Version: 6.00 Build 0)  -->
<svg version="1.1" id="Calque_1" xmlns="http://www.w3.org/2000/svg" xmlns:xlink="http://www.w3.org/1999/xlink" x="0px" y="0px"
	 width="200px" height="80px" viewBox="0 0 1000 398" style="enable-background:new 0 0 1000 398;" xml:space="preserve">
<path class="st0"  style="fill:#FFFFFF"  d="M143.1,237.1l43.4-40.3c3.5-3.5,5.2-7.4,5.2-11.6c0-4.2-1.6-7.9-4.7-11c-3.1-3.1-6.8-4.7-11-4.7s-8,1.7-11.3,5
	L105.5,231V127.2c0-5.3-1.7-9.4-5-12.2c-3.3-2.8-7.5-4.1-12.4-4.1c-5,0-9.1,1.4-12.3,4.1c-3.2,2.8-4.8,6.8-4.8,12.2v164.9
	c0,5.3,1.6,9.4,4.8,12.2c3.2,2.8,7.3,4.1,12.3,4.1s9.1-1.4,12.4-4.1c3.3-2.8,5-6.8,5-12.2v-47.2l64.6,58.6c3.5,3.3,7.3,5,11.3,5
	s7.6-1.7,10.6-5s4.6-7.1,4.6-11.3c0-4.4-1.8-8.4-5.5-11.9L143.1,237.1z"/>
<path class="st0" style="fill:#FFFFFF" d="M432.1,169.1c-5.2,0-9.3,1.5-12.4,4.4s-4.7,6.9-4.7,11.9V247c0,10.5-2.9,18.9-8.7,25.3
	c-5.8,6.4-13.5,9.5-23.1,9.5c-8.3,0-14.4-2.3-18.2-6.9c-3.9-4.6-5.8-11.7-5.8-21.3v-68.2c0-5-1.6-8.9-4.7-11.9
	c-3.1-2.9-7.4-4.4-12.7-4.4c-5.2,0-9.3,1.5-12.4,4.4s-4.7,6.9-4.7,11.9v67.9c0,37.2,16.6,55.8,49.7,55.8c9,0,17.1-2,24.3-5.9
	c7.2-4,12.9-9.6,17.1-17v6.9c0,4.8,1.5,8.6,4.4,11.3c2.9,2.8,6.9,4.1,11.9,4.1c5.2,0,9.3-1.5,12.6-4.4c3.2-2.9,4.8-6.8,4.8-11.6
	V185.4c0-5-1.6-8.9-4.7-11.9C441.7,170.6,437.4,169.1,432.1,169.1z"/>
<path class="st0" style="fill:#FFFFFF" d="M583.3,177.2c-10.4-5.7-22.5-8.6-36.3-8.6s-25.9,2.9-36.3,8.6c-10.4,5.7-18.5,13.9-24.2,24.4
	c-5.7,10.6-8.6,23-8.6,37.2s2.9,26.6,8.6,37.3c5.7,10.7,13.8,18.9,24.2,24.6s22.5,8.6,36.3,8.6s25.9-2.9,36.3-8.6
	c10.4-5.7,18.4-13.9,24-24.6s8.4-23.1,8.4-37.3s-2.8-26.6-8.4-37.2C601.7,191,593.7,182.9,583.3,177.2z M572.4,271.3
	c-5.9,7.4-14.5,11-25.7,11c-11,0-19.5-3.7-25.4-11c-5.9-7.4-8.8-18.2-8.8-32.6c0-14.2,3-25,9-32.5S536,195,547,195
	s19.5,3.7,25.4,11.2s8.8,18.3,8.8,32.5C581.3,253.1,578.3,264,572.4,271.3z"/>
<path class="st0" style="fill:#FFFFFF" d="M722.7,168.6c-9.8,0-18.5,2-26.2,6.1s-13.9,9.9-18.5,17.4v-7.5c0-4.6-1.5-8.3-4.6-11.2c-3-2.9-7-4.3-11.7-4.3
	c-5.3,0-9.6,1.5-12.7,4.4c-3.1,2.9-4.7,6.8-4.7,11.6V292c0,5.2,1.5,9.2,4.6,12.2c3,2.9,7.2,4.4,12.6,4.4c5.3,0,9.6-1.5,12.7-4.4
	c3.1-2.9,4.7-7,4.7-12.2v-61.6c0-10.5,3-18.9,9-25.1c6-6.3,13.9-9.4,23.9-9.4c8.5,0,14.7,2.4,18.6,7.2c4,4.8,5.9,12.4,5.9,22.9v66
	c0,5.2,1.6,9.2,4.7,12.2c3.1,2.9,7.4,4.4,12.7,4.4s9.5-1.5,12.6-4.4c3-2.9,4.6-7,4.6-12.2v-67.9c0-18.6-4-32.5-11.9-41.7
	C750.9,173.2,738.9,168.6,722.7,168.6z"/>
<g>
	<path class="st0" style="fill:#FFFFFF" d="M217.4,297.7c0,9.7,7.9,17.6,17.6,17.6h49.2c9.7,0,17.6-7.9,17.6-17.6v-81.5c0-7-4.1-13.1-10.1-15.9
		c1.9-2.4,3-5.4,3-8.7c0-5.1-2.7-9.7-7-12.2c0-1,0-1.9,0-1.9c0-6.5-4.3-10-8.1-13.1c-4.7-3.8-9.5-7.8-9.5-18.3V146
		c0-5.8-4.7-10.5-10.5-10.5c-5.8,0-10.5,4.7-10.5,10.5c0,10.7-4.9,14.7-9.6,18.6c-3.7,3.1-8,6.6-8,13c0,0,0,0.9,0,1.9
		c-4.3,2.5-7,7.1-7,12.2c0,3.3,1.1,6.3,3,8.7c-5.9,2.8-10.1,8.9-10.1,15.9v25.6c0,1.9,1.6,3.5,3.5,3.5s3.5-1.6,3.5-3.5v-25.6
		c0-5.8,4.7-10.5,10.5-10.5h49.2c5.8,0,10.5,4.7,10.5,10.5v5.6H277c-1.9,0-3.5,1.6-3.5,3.5s1.6,3.5,3.5,3.5h17.6v14H277
		c-1.9,0-3.5,1.6-3.5,3.5s1.6,3.5,3.5,3.5h17.6v14H277c-1.9,0-3.5,1.6-3.5,3.5s1.6,3.5,3.5,3.5h17.6v14H277c-1.9,0-3.5,1.6-3.5,3.5
		s1.6,3.5,3.5,3.5h17.6v5.6c0,5.8-4.7,10.5-10.5,10.5h-49.2c-5.8,0-10.5-4.7-10.5-10.5v-27.7c0-1.9-1.6-3.5-3.5-3.5
		s-3.5,1.6-3.5,3.5L217.4,297.7L217.4,297.7z M243.9,170c5.1-4.3,12.1-10.1,12.1-24c0-1.9,1.6-3.5,3.5-3.5s3.5,1.6,3.5,3.5v0.1
		c0,13.9,7,19.6,12.1,23.8c3.6,3,5.5,4.7,5.5,7.7h-42.1C238.5,174.7,240.3,173,243.9,170z M238.5,184.6h42.1c3.9,0,7,3.2,7,7
		c0,3.9-3.2,7-7,7h-42.1c-3.9,0-7-3.2-7-7C231.4,187.8,234.6,184.6,238.5,184.6z"/>
	<path class="st0" style="fill:#FFFFFF" d="M220.9,259.4c1.9,0,3.5-1.6,3.5-3.5s-1.6-3.5-3.5-3.5s-3.5,1.6-3.5,3.5S219,259.4,220.9,259.4z"/>
	<path class="st0" style="fill:#FFFFFF" d="M245.5,97.6l12.8,22.4c0.2,0.4,0.7,0.7,1.2,0.7s1-0.3,1.2-0.7l12.8-22.4c2.9-5.1,2.9-11.1,0-16.2
		c-2.8-5-7.9-8.1-13.7-8.2c-0.1,0-0.3,0-0.4,0s-0.3,0-0.4,0c-5.7,0.1-10.8,3.2-13.7,8.2C242.6,86.5,242.6,92.6,245.5,97.6z"/>
</g>
<path class="st0" style="fill:#FFFFFF" d="M928.6,201.6c-5.6-10.6-13.6-18.7-24-24.4s-22.5-8.6-36.3-8.6s-25.9,2.9-36.3,8.6
	c-10.4,5.7-18.5,13.9-24.2,24.4c-5.7,10.6-8.6,23-8.6,37.2s2.9,26.6,8.6,37.3c5.7,10.7,13.8,18.9,24.2,24.6s22.5,8.6,36.3,8.6
	s25.9-2.9,36.3-8.6c10.4-5.7,18.4-13.9,24-24.6s8.4-23.1,8.4-37.3S934.2,212.2,928.6,201.6z M865.2,222.2c0.3,1.5,0,3-0.9,4.2
	c-0.9,1.2-2.3,1.9-3.8,1.9c0,0,0,0,0,0c-2.5,0-4.6-1.9-4.8-4.4c-0.2-2.5,1.5-4.7,4-5.2c0.3,0,0.6-0.1,0.9-0.1
	C862.7,218.7,864.6,220.1,865.2,222.2z M847.7,218.6c0.2,0,0.4-0.1,0.7,0c1.4,0,2.6,1,3,2.3c0.5,1.7-0.6,3.5-2.3,3.9
	c-0.3,0.1-0.5,0.1-0.7,0.1c0,0-0.1,0-0.1,0c-1.6,0.1-3-1.2-3.2-2.9C845,220.3,846.1,218.8,847.7,218.6z M822.5,243.6
	c-0.4-1.7,0.6-3.4,2.3-3.9c0.9-0.3,1.7-0.1,2.5,0.3c0.7,0.4,1.2,1.1,1.4,2c0.2,0.8,0.1,1.7-0.3,2.4c-0.4,0.7-1.1,1.3-2,1.5
	c-0.2,0.1-0.4,0.1-0.6,0.1C824.3,246.1,822.9,245.1,822.5,243.6z M830.2,234.9C830.2,234.9,830.2,234.9,830.2,234.9
	c-0.3,0.1-0.6,0.1-0.8,0.1s-0.4,0-0.6-0.1c-0.4-0.1-0.7-0.2-1.1-0.4c-0.8-0.5-1.4-1.3-1.5-2.3c0-0.2,0-0.4,0-0.6
	c0-0.6,0.2-1.1,0.5-1.6c0.2-0.3,0.5-0.6,0.8-0.8s0.7-0.4,1.1-0.5c0.3-0.1,0.6-0.1,0.8-0.1c1.5,0,2.7,1,3.1,2.4
	C833,232.7,831.9,234.5,830.2,234.9z M836.6,221.5c0.3-0.1,0.6-0.1,0.8-0.1c1.1,0,1.9,0.5,2.5,1.3c0.3,0.3,0.4,0.7,0.6,1.1
	c0.5,1.7-0.6,3.5-2.3,3.9c-0.3,0.1-0.6,0.1-0.8,0.1c-1,0-1.9-0.5-2.5-1.2c-0.4-0.5-0.6-1-0.7-1.6C834.1,223.5,835.1,222,836.6,221.5
	z M858.4,282.4c-4.3-0.3-9.6-5.7-14.9-15.2c0,0,0,0,0,0c-3.6-6.4-6.4-13.1-8.4-20.2c-1.2-6.5,3-12.9,9.5-14.3c0,0,0,0,0,0
	c1.1-0.3,2.2-0.4,3.2-0.4c0,0,0,0,0,0l0,0c4.6,0,9.4,2.2,12.2,5.5c0.2,0.3,0.4,0.6,0.6,0.8c0.6,0.9,1,1.8,1.3,2.7
	c0.8,2.9-0.3,5.4-1.5,8.1c-1.3,3-2.8,6.4-1.1,10.2c0.3,0.7,0.8,1.5,1.3,2.2c4,5.3,5.9,9.7,5.8,13.3c-0.1,1.2-0.3,2.3-0.9,3.2
	C864,280.9,861.3,282.4,858.4,282.4L858.4,282.4C858.4,282.4,858.4,282.4,858.4,282.4z M893,194.5c0.3-1.6,1.7-2.9,3.3-2.9
	c0.9,0,1.7,0.4,2.3,1c0.5,0.6,0.9,1.3,0.9,2.2c0,1.5-1,2.7-2.4,3.1c-0.3,0.1-0.6,0.1-0.9,0.1c-0.7,0-1.3-0.2-1.8-0.5
	c-0.9-0.6-1.4-1.5-1.4-2.7C893,194.7,893,194.6,893,194.5z M885.1,191.7c1.8,0,3.2,1.4,3.2,3.2c0,1.8-1.4,3.2-3.2,3.2
	s-3.2-1.4-3.2-3.2C881.9,193.1,883.3,191.7,885.1,191.7z M872.8,204.4c-0.2,0-0.5-0.1-0.7-0.2c-0.1,0-0.1,0-0.2-0.1
	c-0.2-0.1-0.4-0.2-0.6-0.3c-0.1,0-0.2-0.1-0.2-0.1c-0.1-0.1-0.3-0.2-0.4-0.3c-0.1-0.1-0.2-0.2-0.3-0.3c-0.1-0.1-0.1-0.2-0.2-0.2
	c-0.1-0.2-0.3-0.3-0.4-0.5c0,0,0-0.1-0.1-0.1c-0.1-0.2-0.3-0.5-0.4-0.7c0,0,0-0.1,0-0.1c-0.1-0.3-0.2-0.5-0.3-0.8
	c-0.1-0.3-0.1-0.6-0.1-1c0-2.7,2.1-4.8,4.8-4.8c0.3,0,0.7,0,1,0.1c0.2,0,0.5,0.1,0.7,0.2c0.1,0,0.1,0,0.2,0.1
	c0.2,0.1,0.4,0.2,0.6,0.3c0.1,0,0.2,0.1,0.2,0.1c0.1,0.1,0.3,0.2,0.4,0.3c0.1,0.1,0.2,0.2,0.3,0.3c0.1,0.1,0.1,0.2,0.2,0.2
	c0.1,0.2,0.3,0.3,0.4,0.5c0,0,0,0.1,0.1,0.1c0.1,0.2,0.3,0.5,0.4,0.7c0,0,0,0.1,0,0.1c0.1,0.3,0.2,0.5,0.3,0.8
	c0.1,0.3,0.1,0.6,0.1,1c0,0.3,0,0.7-0.1,1c0,0.2-0.1,0.5-0.2,0.7c0,0.1,0,0.1-0.1,0.2c-0.1,0.2-0.2,0.4-0.3,0.6
	c0,0.1-0.1,0.2-0.1,0.2c-0.1,0.1-0.2,0.3-0.3,0.4c-0.1,0.1-0.2,0.2-0.3,0.3c-0.1,0.1-0.2,0.1-0.2,0.2c-0.2,0.1-0.3,0.3-0.5,0.4
	c0,0-0.1,0-0.1,0.1c-0.2,0.1-0.5,0.3-0.7,0.4c0,0-0.1,0-0.1,0c-0.3,0.1-0.5,0.2-0.8,0.3c-0.3,0.1-0.6,0.1-1,0.1
	C873.5,204.5,873.1,204.5,872.8,204.4z M901.5,237.5c-2.6,10.6-6.4,17.2-10.5,18.6c-2.8,0.7-5.8-0.1-7.8-2.1c-0.8-0.9-1.6-2.1-2-3.8
	c-0.6-2.9-0.3-7.2,2.3-13.6c1.7-4.2,0.5-7.1-1.2-9.6c-0.6-0.8-1.2-1.5-1.8-2.2c-1.8-2.2-3.5-4.3-3.5-7.3c0,0,0,0,0,0
	c0-6.3,7.4-12.9,14.5-12.9c6.6-0.3,12.3,4.7,12.9,11.3c0,0,0,0,0,0C904.3,223.2,903.3,230.4,901.5,237.5z M906,202.9
	c-1.8,0-3.2-1.4-3.2-3.2c-0.1-1.8,1.4-3.2,3.2-3.2s3.2,1.4,3.2,3.2C909.2,201.5,907.8,202.9,906,202.9z M915.4,210.6
	c-0.1,0.2-0.2,0.4-0.3,0.5c-0.5,0.7-1.2,1.2-2,1.3c-0.2,0-0.4,0.1-0.7,0.1c-1.8,0-3.2-1.4-3.2-3.2s1.4-3.2,3.2-3.2s3.2,1.4,3.2,3.2
	C915.6,209.8,915.5,210.2,915.4,210.6z"/>
</svg>
