<?xml version="1.0" encoding="utf-8"?>
<!-- Generator: Adobe Illustrator 23.0.6, SVG Export Plug-In . SVG Version: 6.00 Build 0)  -->
<svg version="1.1" id="Calque_1" xmlns="http://www.w3.org/2000/svg" xmlns:xlink="http://www.w3.org/1999/xlink" x="0px" y="0px"
	 width="100px" height="50px" viewBox="0 0 1000 398" style="enable-background:new 0 0 1000 398;" xml:space="preserve">
<style type="text/css">
	.st0{fill:none;}
	.st1{fill:#004CC5;}
	.st2{fill:url(#SVGID_1_);}
	.st3{fill:url(#SVGID_2_);}
	.st4{fill:url(#SVGID_3_);}
</style>
<path class="st0" d="M547,195.1c-11,0-19.6,3.7-25.5,11.2c-6,7.5-9,18.3-9,32.5c0,14.4,2.9,25.2,8.8,32.6c5.9,7.4,14.4,11,25.4,11
	c11.2,0,19.8-3.7,25.7-11c5.9-7.4,8.8-18.2,8.8-32.6c0-14.2-2.9-25-8.8-32.5C566.5,198.8,558.1,195.1,547,195.1z"/>
<path class="st1" d="M143.1,237.1l43.4-40.3c3.5-3.5,5.2-7.4,5.2-11.6c0-4.2-1.6-7.9-4.7-11c-3.1-3.1-6.8-4.7-11-4.7
	c-4.2,0-8,1.7-11.3,5L105.5,231V127.2c0-5.3-1.7-9.4-5-12.2c-3.3-2.8-7.5-4.1-12.4-4.1c-5,0-9.1,1.4-12.3,4.1
	c-3.2,2.8-4.8,6.8-4.8,12.2v164.9c0,5.3,1.6,9.4,4.8,12.2c3.2,2.8,7.3,4.1,12.3,4.1c5,0,9.1-1.4,12.4-4.1c3.3-2.8,5-6.8,5-12.2
	v-47.2l64.6,58.6c3.5,3.3,7.3,5,11.3,5c4,0,7.6-1.7,10.6-5c3-3.3,4.6-7.1,4.6-11.3c0-4.4-1.8-8.4-5.5-11.9L143.1,237.1z"/>
<path class="st1" d="M432.1,169.1c-5.2,0-9.3,1.5-12.4,4.4c-3.1,2.9-4.7,6.9-4.7,11.9V247c0,10.5-2.9,18.9-8.7,25.3
	c-5.8,6.4-13.5,9.5-23.1,9.5c-8.3,0-14.4-2.3-18.2-6.9c-3.9-4.6-5.8-11.7-5.8-21.3v-68.2c0-5-1.6-8.9-4.7-11.9
	c-3.1-2.9-7.4-4.4-12.7-4.4c-5.2,0-9.3,1.5-12.4,4.4c-3.1,2.9-4.7,6.9-4.7,11.9v67.9c0,37.2,16.6,55.8,49.7,55.8
	c9,0,17.1-2,24.3-5.9c7.2-4,12.9-9.6,17.1-17v6.9c0,4.8,1.5,8.6,4.4,11.3c2.9,2.8,6.9,4.1,11.9,4.1c5.2,0,9.3-1.5,12.6-4.4
	c3.2-2.9,4.8-6.8,4.8-11.6V185.4c0-5-1.6-8.9-4.7-11.9C441.7,170.6,437.4,169.1,432.1,169.1z"/>
<path class="st1" d="M583.3,177.2c-10.4-5.7-22.5-8.6-36.3-8.6c-13.8,0-25.9,2.9-36.3,8.6c-10.4,5.7-18.5,13.9-24.2,24.4
	c-5.7,10.6-8.6,23-8.6,37.2c0,14.2,2.9,26.6,8.6,37.3c5.7,10.7,13.8,18.9,24.2,24.6c10.4,5.7,22.5,8.6,36.3,8.6
	c13.8,0,25.9-2.9,36.3-8.6c10.4-5.7,18.4-13.9,24-24.6c5.6-10.7,8.4-23.1,8.4-37.3c0-14.2-2.8-26.6-8.4-37.2
	C601.7,191,593.7,182.9,583.3,177.2z M572.4,271.3c-5.9,7.4-14.5,11-25.7,11c-11,0-19.5-3.7-25.4-11c-5.9-7.4-8.8-18.2-8.8-32.6
	c0-14.2,3-25,9-32.5c6-7.5,14.5-11.2,25.5-11.2s19.5,3.7,25.4,11.2c5.9,7.5,8.8,18.3,8.8,32.5C581.3,253.1,578.3,264,572.4,271.3z"
	/>
<path class="st1" d="M722.7,168.6c-9.8,0-18.5,2-26.2,6.1c-7.7,4.1-13.9,9.9-18.5,17.4v-7.5c0-4.6-1.5-8.3-4.6-11.2
	c-3-2.9-7-4.3-11.7-4.3c-5.3,0-9.6,1.5-12.7,4.4c-3.1,2.9-4.7,6.8-4.7,11.6v106.9c0,5.2,1.5,9.2,4.6,12.2c3,2.9,7.2,4.4,12.6,4.4
	c5.3,0,9.6-1.5,12.7-4.4c3.1-2.9,4.7-7,4.7-12.2v-61.6c0-10.5,3-18.9,9-25.1c6-6.3,13.9-9.4,23.9-9.4c8.5,0,14.7,2.4,18.6,7.2
	c4,4.8,5.9,12.4,5.9,22.9v66c0,5.2,1.6,9.2,4.7,12.2c3.1,2.9,7.4,4.4,12.7,4.4c5.3,0,9.5-1.5,12.6-4.4c3-2.9,4.6-7,4.6-12.2v-67.9
	c0-18.6-4-32.5-11.9-41.7C750.9,173.2,738.9,168.6,722.7,168.6z"/>
<g>
	<linearGradient id="SVGID_1_" gradientUnits="userSpaceOnUse" x1="217.3872" y1="225.3438" x2="301.6591" y2="225.3438">
		<stop  offset="0" style="stop-color:#FFC061"/>
		<stop  offset="1" style="stop-color:#FF4F68"/>
	</linearGradient>
	<path class="st2" d="M217.4,297.7c0,9.7,7.9,17.6,17.6,17.6h49.2c9.7,0,17.6-7.9,17.6-17.6v-81.5c0-7-4.1-13.1-10.1-15.9
		c1.9-2.4,3-5.4,3-8.7c0-5.1-2.7-9.7-7-12.2c0-1,0-1.9,0-1.9c0-6.5-4.3-10-8.1-13.1c-4.7-3.8-9.5-7.8-9.5-18.3V146
		c0-5.8-4.7-10.5-10.5-10.5c-5.8,0-10.5,4.7-10.5,10.5c0,10.7-4.9,14.7-9.6,18.6c-3.7,3.1-8,6.6-8,13c0,0,0,0.9,0,1.9
		c-4.3,2.5-7,7.1-7,12.2c0,3.3,1.1,6.3,3,8.7c-5.9,2.8-10.1,8.9-10.1,15.9v25.6c0,1.9,1.6,3.5,3.5,3.5c1.9,0,3.5-1.6,3.5-3.5v-25.6
		c0-5.8,4.7-10.5,10.5-10.5h49.2c5.8,0,10.5,4.7,10.5,10.5v5.6h-17.6c-1.9,0-3.5,1.6-3.5,3.5c0,1.9,1.6,3.5,3.5,3.5h17.6v14h-17.6
		c-1.9,0-3.5,1.6-3.5,3.5c0,1.9,1.6,3.5,3.5,3.5h17.6v14h-17.6c-1.9,0-3.5,1.6-3.5,3.5c0,1.9,1.6,3.5,3.5,3.5h17.6v14h-17.6
		c-1.9,0-3.5,1.6-3.5,3.5s1.6,3.5,3.5,3.5h17.6v5.6c0,5.8-4.7,10.5-10.5,10.5h-49.2c-5.8,0-10.5-4.7-10.5-10.5v-27.7
		c0-1.9-1.6-3.5-3.5-3.5c-1.9,0-3.5,1.6-3.5,3.5V297.7z M243.9,170c5.1-4.3,12.1-10.1,12.1-24c0-1.9,1.6-3.5,3.5-3.5
		c1.9,0,3.5,1.6,3.5,3.5v0.1c0,13.9,7,19.6,12.1,23.8c3.6,3,5.5,4.7,5.5,7.7h-42.1C238.5,174.7,240.3,173,243.9,170z M238.5,184.6
		h42.1c3.9,0,7,3.2,7,7c0,3.9-3.2,7-7,7h-42.1c-3.9,0-7-3.2-7-7C231.4,187.8,234.6,184.6,238.5,184.6z"/>
	<linearGradient id="SVGID_2_" gradientUnits="userSpaceOnUse" x1="217.3872" y1="255.8923" x2="224.4099" y2="255.8923">
		<stop  offset="0" style="stop-color:#FFC061"/>
		<stop  offset="1" style="stop-color:#FF4F68"/>
	</linearGradient>
	<path class="st3" d="M220.9,259.4c1.9,0,3.5-1.6,3.5-3.5c0-1.9-1.6-3.5-3.5-3.5c-1.9,0-3.5,1.6-3.5,3.5
		C217.4,257.8,219,259.4,220.9,259.4z"/>
	<linearGradient id="SVGID_3_" gradientUnits="userSpaceOnUse" x1="243.2904" y1="96.9546" x2="275.7559" y2="96.9546">
		<stop  offset="0" style="stop-color:#FFC061"/>
		<stop  offset="1" style="stop-color:#FF4F68"/>
	</linearGradient>
	<path class="st4" d="M245.5,97.6l12.8,22.4c0.2,0.4,0.7,0.7,1.2,0.7c0.5,0,1-0.3,1.2-0.7l12.8-22.4c2.9-5.1,2.9-11.1,0-16.2
		c-2.8-5-7.9-8.1-13.7-8.2c-0.1,0-0.3,0-0.4,0s-0.3,0-0.4,0c-5.7,0.1-10.8,3.2-13.7,8.2C242.6,86.5,242.6,92.6,245.5,97.6z"/>
</g>
<g>
	<circle class="st0" cx="873.8" cy="199.7" r="4.8"/>
	<path class="st0" d="M896.3,198.1c0.3,0,0.6-0.1,0.9-0.1c1.4-0.4,2.4-1.6,2.4-3.1c0-1.8-1.4-3.2-3.2-3.2c-1.7,0-3,1.3-3.2,2.9
		c0,0.1,0,0.2,0,0.3C893.1,196.6,894.5,198.1,896.3,198.1z"/>
	<circle class="st0" cx="885.1" cy="194.9" r="3.2"/>
	<circle class="st0" cx="906" cy="199.7" r="3.2"/>
	<path class="st0" d="M860.4,249.5c1.2-2.7,2.3-5.2,1.5-8.1c-1.4-5.1-8-9.1-14.1-9.1c-1.1,0-2.2,0.1-3.2,0.4
		c-6.5,1.4-10.7,7.8-9.5,14.3c2,7,4.8,13.8,8.4,20.2c5.3,9.6,10.6,15,14.9,15.2c2.9,0,5.6-1.5,7.1-4c2.1-3.8,0.4-9.5-4.9-16.4
		C857.1,257.3,858.9,253.1,860.4,249.5z M858.5,246.9c-0.6,0.7-1.6,0.8-2.3,0.3c-4.2-3.3-9.8-4.1-14.7-2c-0.5,0.2-1.1,0.2-1.6-0.2
		c-0.5-0.3-0.7-0.9-0.6-1.5c0.1-0.6,0.4-1.1,1-1.3c6-2.6,12.9-1.6,18,2.4c0.3,0.3,0.5,0.7,0.6,1.1
		C858.8,246.2,858.7,246.6,858.5,246.9z"/>
	<path class="st0" d="M891.5,204.5c-7,0-14.5,6.6-14.5,12.9c0,3,1.7,5.1,3.5,7.3c2.4,3,5.2,6.3,3,11.8c-4.2,10.2-2.5,15.1-0.3,17.4
		c2,2.1,5,2.9,7.8,2.1c4.1-1.4,7.8-8,10.5-18.6c1.8-7.1,2.8-14.3,2.9-21.6C903.8,209.2,898.1,204.2,891.5,204.5z M900.2,217
		c-0.3,0.8-1.3,1.2-2.1,0.9c-4.9-2.1-10.6-1.3-14.7,2c-0.7,0.6-1.7,0.4-2.3-0.3c-0.6-0.7-0.4-1.7,0.3-2.3c5.1-4.1,12-5,18-2.4
		C900.2,215.2,900.5,216.2,900.2,217z"/>
	<path class="st0" d="M829.4,228.6c-0.3,0-0.6,0-0.8,0.1c-1.6,0.4-2.6,1.9-2.4,3.5c0.2,1.6,1.6,2.8,3.2,2.8c0.3,0,0.6,0,0.8-0.1
		c1.7-0.5,2.7-2.2,2.3-3.9C832.1,229.6,830.8,228.6,829.4,228.6z"/>
	<path class="st0" d="M859.6,218.7c-2.5,0.4-4.2,2.7-4,5.2c0.2,2.5,2.3,4.4,4.8,4.4c1.5,0,2.9-0.7,3.8-1.9c0.9-1.2,1.2-2.7,0.8-4.2
		l0,0C864.5,219.8,862.1,218.3,859.6,218.7z"/>
	<path class="st0" d="M849.2,224.8c1.7-0.5,2.7-2.2,2.3-3.9c-0.4-1.6-2-2.6-3.7-2.3c-1.6,0.3-2.8,1.8-2.6,3.4
		c0.1,1.7,1.5,2.9,3.2,2.9C848.6,225,848.9,224.9,849.2,224.8z"/>
	<path class="st0" d="M837.5,227.9c0.3,0,0.6,0,0.8-0.1c1.7-0.5,2.7-2.2,2.3-3.9c-0.4-1.4-1.7-2.4-3.1-2.4c-0.3,0-0.6,0-0.8,0.1
		c-1.6,0.4-2.6,1.9-2.4,3.5C834.5,226.7,835.8,227.9,837.5,227.9z"/>
	<path class="st0" d="M912.4,206.1c-1.8,0-3.2,1.4-3.2,3.2c0,1.8,1.4,3.2,3.2,3.2c1.8,0,3.2-1.4,3.2-3.2
		C915.6,207.6,914.2,206.1,912.4,206.1z"/>
	<path class="st0" d="M826.5,245.9c0.8-0.2,1.5-0.8,2-1.5c0.4-0.7,0.5-1.6,0.3-2.4c-0.5-1.7-2.2-2.7-3.9-2.3
		c-1.7,0.5-2.7,2.2-2.3,3.9C823,245.3,824.8,246.4,826.5,245.9z"/>
	<path class="st1" d="M928.6,201.6c-5.6-10.6-13.6-18.7-24-24.4c-10.4-5.7-22.5-8.6-36.3-8.6c-13.8,0-25.9,2.9-36.3,8.6
		c-10.4,5.7-18.5,13.9-24.2,24.4c-5.7,10.6-8.6,23-8.6,37.2c0,14.2,2.9,26.6,8.6,37.3c5.7,10.7,13.8,18.9,24.2,24.6
		c10.4,5.7,22.5,8.6,36.3,8.6c13.8,0,25.9-2.9,36.3-8.6c10.4-5.7,18.4-13.9,24-24.6c5.6-10.7,8.4-23.1,8.4-37.3
		C937,224.6,934.2,212.2,928.6,201.6z M906,196.5c1.8,0,3.2,1.4,3.2,3.2c0,1.8-1.4,3.2-3.2,3.2c-1.8,0-3.2-1.4-3.2-3.2
		C902.7,197.9,904.2,196.5,906,196.5z M901.5,237.5c-2.6,10.6-6.4,17.2-10.5,18.6c-2.8,0.7-5.8-0.1-7.8-2.1
		c-2.2-2.3-3.8-7.2,0.3-17.4c2.2-5.5-0.5-8.9-3-11.8c-1.8-2.2-3.5-4.3-3.5-7.3c0-6.3,7.4-12.9,14.5-12.9c6.6-0.3,12.3,4.7,12.9,11.3
		C904.3,223.2,903.3,230.4,901.5,237.5z M888.3,194.9c0,1.8-1.4,3.2-3.2,3.2s-3.2-1.4-3.2-3.2c0-1.8,1.4-3.2,3.2-3.2
		S888.3,193.1,888.3,194.9z M873.8,194.9c2.7,0,4.8,2.2,4.8,4.8c0,2.7-2.2,4.8-4.8,4.8c-2.7,0-4.8-2.2-4.8-4.8
		C869,197,871.1,194.9,873.8,194.9z M896.3,191.6c1.8,0,3.2,1.4,3.2,3.2c0,1.5-1,2.7-2.4,3.1c-0.3,0.1-0.6,0.1-0.9,0.1
		c-1.8,0-3.2-1.4-3.2-3.2c0-0.1,0-0.2,0-0.3C893.3,192.9,894.7,191.6,896.3,191.6z M865.5,278.4c-1.5,2.5-4.2,4-7.1,4
		c-4.3-0.3-9.6-5.7-14.9-15.2c-3.6-6.4-6.4-13.1-8.4-20.2c-1.2-6.5,3-12.9,9.5-14.3c1.1-0.3,2.2-0.4,3.2-0.4c6.1,0,12.7,4,14.1,9.1
		c0.8,2.9-0.3,5.4-1.5,8.1c-1.6,3.6-3.4,7.7,0.2,12.4C865.9,268.9,867.6,274.5,865.5,278.4z M836.6,221.5c0.3-0.1,0.6-0.1,0.8-0.1
		c1.5,0,2.7,1,3.1,2.4c0.5,1.7-0.6,3.5-2.3,3.9c-0.3,0.1-0.6,0.1-0.8,0.1c-1.6,0-3-1.2-3.2-2.8C834.1,223.5,835.1,222,836.6,221.5z
		 M830.2,234.9c-0.3,0.1-0.6,0.1-0.8,0.1c-1.6,0-3-1.2-3.2-2.8c-0.2-1.6,0.8-3.1,2.4-3.5c0.3-0.1,0.6-0.1,0.8-0.1
		c1.5,0,2.7,1,3.1,2.4C833,232.7,831.9,234.5,830.2,234.9z M824.8,239.7c1.7-0.5,3.5,0.6,3.9,2.3c0.2,0.8,0.1,1.7-0.3,2.4
		c-0.4,0.7-1.1,1.3-2,1.5c-1.7,0.5-3.5-0.6-3.9-2.3C822.1,241.9,823.1,240.2,824.8,239.7z M845.1,222c-0.1-1.7,1-3.2,2.6-3.4
		c1.6-0.3,3.2,0.7,3.7,2.3c0.5,1.7-0.6,3.5-2.3,3.9c-0.3,0.1-0.6,0.1-0.8,0.1C846.7,225,845.3,223.7,845.1,222z M864.3,226.4
		c-0.9,1.2-2.3,1.9-3.8,1.9c-2.5,0-4.6-1.9-4.8-4.4c-0.2-2.5,1.5-4.7,4-5.2c2.5-0.4,4.8,1.1,5.5,3.5l0,0
		C865.5,223.7,865.2,225.2,864.3,226.4z M912.4,212.5c-1.8,0-3.2-1.4-3.2-3.2c0-1.8,1.4-3.2,3.2-3.2c1.8,0,3.2,1.4,3.2,3.2
		C915.6,211.1,914.2,212.5,912.4,212.5z"/>
	<path class="st1" d="M858.8,245.7c0-0.4-0.3-0.8-0.6-1.1c-5.1-4.1-12-5-18-2.4c-0.5,0.2-0.9,0.7-1,1.3c-0.1,0.6,0.2,1.1,0.6,1.5
		c0.5,0.3,1.1,0.4,1.6,0.2c4.9-2.1,10.6-1.3,14.7,2c0.7,0.6,1.7,0.4,2.3-0.3C858.7,246.6,858.8,246.2,858.8,245.7z"/>
	<path class="st1" d="M899.4,214.9c-6-2.6-12.9-1.6-18,2.4c-0.7,0.6-0.8,1.6-0.3,2.3c0.6,0.7,1.6,0.8,2.3,0.3
		c4.2-3.3,9.8-4.1,14.7-2c0.8,0.3,1.7,0,2.1-0.9C900.5,216.2,900.2,215.2,899.4,214.9z"/>
</g>
</svg>
