<?xml version="1.0" encoding="utf-8"?>
<!-- Generator: Adobe Illustrator 24.0.1, SVG Export Plug-In . SVG Version: 6.00 Build 0)  -->
<svg version="1.1" id="Calque_1" xmlns="http://www.w3.org/2000/svg" xmlns:xlink="http://www.w3.org/1999/xlink" x="0px" y="0px"
	 width="25px" height="25px" viewBox="0 0 50 50" style="enable-background:new 0 0 50 50;" xml:space="preserve">

<path class="st0" style="fill:#0B45EF" d="M114.1-45.6c-4.4-4.4-10.3-6.9-16.6-6.9c-6.3,0-12.2,2.4-16.6,6.9C76.5-41.2,74-35.3,74-29s2.4,12.2,6.9,16.6
	C85.3-8,91.2-5.5,97.5-5.5c6.3,0,12.2-2.4,16.6-6.9c4.4-4.4,6.9-10.3,6.9-16.6S118.5-41.2,114.1-45.6z M84.2-13.1
	c0.8-6.7,6.5-11.8,13.3-11.8c3.6,0,6.9,1.4,9.5,3.9c2.1,2.1,3.5,4.9,3.8,7.9c-3.6,3-8.2,4.8-13.3,4.8S87.8-10.1,84.2-13.1z
	 M97.5-27.8c-3.9,0-7.1-3.2-7.1-7.1c0-3.9,3.2-7.1,7.1-7.1s7.1,3.2,7.1,7.1C104.6-31,101.4-27.8,97.5-27.8z M113.1-15.4
	c-0.7-2.8-2.2-5.4-4.2-7.5c-1.7-1.7-3.7-3-5.9-3.8c2.6-1.8,4.3-4.8,4.3-8.2c0-5.4-4.4-9.9-9.9-9.9s-9.9,4.4-9.9,9.9
	c0,3.4,1.7,6.4,4.4,8.2c-2,0.7-3.9,1.9-5.5,3.4c-2.3,2.2-3.9,4.9-4.7,7.9c-3.2-3.6-5.1-8.4-5.1-13.6c0-11.4,9.3-20.7,20.7-20.7
	s20.7,9.3,20.7,20.7C118.2-23.8,116.3-19.1,113.1-15.4z"/>
<g>
	<g>
		<path class="st0"  style="fill:#0B45EF" d="M40.1,19.5H9.9c-1.5,0-2.7,1.2-2.7,2.7v23.6c0,1.5,1.2,2.7,2.7,2.7h30.2c1.5,0,2.7-1.2,2.7-2.7V22.3
			C42.9,20.7,41.6,19.5,40.1,19.5z M39.6,45.3H10.4V22.8h29.1L39.6,45.3L39.6,45.3z"/>
	</g>
</g>
<g>
	<g>
		<path class="st0"  style="fill:#0B45EF" d="M25,1.4c-7.4,0-13.5,6.1-13.5,13.6v5.7h3.3v-5.7c0-5.7,4.6-10.3,10.2-10.3s10.2,4.6,10.2,10.3v5.7h3.3v-5.7
			C38.5,7.5,32.4,1.4,25,1.4z"/>
	</g>
</g>
<g>
	<g>
		<path class="st0"  style="fill:#0B45EF" d="M24.7,32.1c-0.9,0-1.6,0.7-1.6,1.6v3.8c0,0.9,0.7,1.6,1.6,1.6c0.9,0,1.6-0.7,1.6-1.6v-3.8
			C26.4,32.9,25.6,32.1,24.7,32.1z"/>
	</g>
</g>
</svg>